<svg xmlns="http://www.w3.org/2000/svg" viewBox="0 0 533.33331 533.33331" height="533.33331" width="533.33331"
     class="commander">
    <defs>
        <clipPath id="a3">
            <path d="M0 400h400V0H0z"></path>
        </clipPath>
        <clipPath id="b3">
            <path d="M74.1948 26.9707H284.883V-1.1738H74.1948z"></path>
        </clipPath>
        <clipPath id="c3">
            <path d="M0 400h400V0H0z"></path>
        </clipPath>
    </defs>
    <title>Commander (ENTJ) personality</title>
    <g clip-path="url(#a3)" transform="matrix(1.33333 0 0 -1.33333 0 533.33333)">
        <g clip-path="url(#b3)" opacity=".10000598">
            <path d="M74.1948 16.3896l95.303 10.581 115.385-13.603-128.918-14.541z" fill="#2b2c2b"></path>
        </g>
    </g>
    <path d="M196.91599508 448.90359878l-9.2133331 34.2626658-12.09333304 11.90133304-5.95066651-7.58133314-3.55066658-49.71466542 4.1279999-30.90399923z"
          fill="#C3987B"></path>
    <path d="M173.018929 429.22919927l26.67999934 8.92666644-2.7826666 10.74799973-30.80933256-11.13199972z"
          fill="#8B6651"></path>
    <path d="M254.50132697 385.94400035l1.63066663 52.78666535-1.91866662 35.89466577-11.70933304 16.69999958-7.96533314-13.053333-8.15733313-29.36799927z"
          fill="#C3987B"></path>
    <path d="M235.49799411 422.99093276l20.63466615 15.7399996-29.75199925 10.17333308-2.97599993-10.55599973z"
          fill="#8B6651"></path>
    <path d="M135.7799966 418.7682662l70.25333158-15.93066627 76.58799809 17.84933289-19.0026662-66.12533168-40.11733232-46.16399885-63.91866507 59.02399852-5.27999987 4.99066655z"
          fill="#553043"></path>
    <path d="M199.699195 438.15626571l-39.34933234-71.31066488 8.63733312-21.21066614 55.08933195-46.54799883 36.37466576 45.49199886-4.31866656 94.15199765z"
          fill="#96637d"></path>
    <path d="M166.10746251 437.77213239l-5.75733319-70.9266649 8.63733312-21.21066613 55.08933196-46.54799884 11.70933304 38.29466571-36.08666577 100.77466415z"
          fill="#734e61"></path>
    <path d="M416.13545626 257.75973689l-12.29466636 8.95066644-9.27599976-5.1413332v-12.33066636z" fill="#8B6651"
          class="an1"></path>
    <path d="M379.03639052 234.6790708l36.02133244-3.99066657 1.0773333 27.07199933-38.06933238-5.82399986z"
          fill="#C3987B" class="an1"></path>
    <path d="M382.37892377 259.59240351l113.2453305-76.89866474 5.17599988 7.55066647L386.90825699 266.71107z"
          fill="#a2a2a2" class="an1"></path>
    <path d="M375.58332394 238.34640404l32.89599918 6.7946665-3.45333325 7.87333313-30.84399922 1.18666664z"
          fill="#DFBDA5" class="an1"></path>
    <path d="M380.89972381 228.64187095l-30.42399924 3.45466658-10.84399973 12.66933302 3.45466658 14.58799963 34.07066582 7.1026665z"
          fill="#96647d"></path>
    <path d="M153.1517295 258.01040355l-20.63466615 10.07733308-7.96666646 50.00399875 29.75333259 18.23333288 12.1879997-5.47066653 2.97599992-14.49199964 2.01466661-28.69599928-21.78533279-46.73999883z"
          fill="#734e61"></path>
    <path d="M135.58852994 248.3164038l-3.07066659 19.77066616 30.8066659 15.25999962 6.7186665-6.62133316-6.90933316-48.94799878-25.3373327 6.14266651z"
          fill="#734e61"></path>
    <path d="M124.55079689 318.09120205l29.75199925 18.2346662 12.18933303-5.47199985 2.97599993-14.49199964z"
          fill="#734D60"></path>
    <path d="M29.72853259 170.19267241l41.07599897 55.66533194 11.51733305.38533333 10.46133307-34.64799914-6.04666652-13.62799966z"
          fill="#474747"></path>
    <path d="M247.9739938 130.17187341L116.96999708 239.87053734 70.8046649 225.85853769l51.53866537-154.90399613z"
          fill="#4F5253"></path>
    <path d="M247.9739938 130.17187341l-14.8746663 49.61866543-116.12933042 60.0799985 60.07866516-143.0986631z"
          fill="#474747"></path>
    <path d="M264.19532673 32.18094253L298.1686592 77.4809414l-27.9279993 69.67866492-27.54533264-117.6653304z"
          fill="#474747"></path>
    <path d="M265.44199336 25.94267602l32.72799919 51.53866538-55.47466528-47.98666547z" fill="#474747"></path>
    <path d="M186.74279533 232.28973753l-59.9839985-140.2199965 34.26266581-24.37733272 35.60666578 42.42133227 38.2946657 89.35199777-13.053333 60.84799848z"
          fill="#C3987B"></path>
    <path d="M258.53252687 43.12174226l20.44266616 151.8319962-83.40266459 14.87733296-36.08666576-141.65999646z"
          fill="#DFBDA5"></path>
    <path d="M227.82026097 181.03840547l-13.245333-4.79999988 14.01199965-4.22266656 10.3666664 2.11199995 11.32399972-1.53466663 4.0319999.57466665-18.61999953 8.44666646z"
          fill="#fff"></path>
    <path d="M234.4426608 202.6334716l-12.57333301 57.96799855L186.454662 210.7894714z" fill="#8B6651"></path>
    <path d="M150.94399623 84.39067456l23.13066608 41.17466563-6.5266665 5.7573332 4.60666655 55.47333194 4.50933322 22.17199945-66.02799835-103.0786641z"
          fill="#474747"></path>
    <path d="M167.54746248 131.32227338l-19.77066617 5.85599986 10.55733306 26.39199934 17.46666623-7.19733316z"
          fill="#DFBDA5"></path>
    <path d="M163.99612923 138.5214732l-9.59599976 2.7826666 11.51599972 7.10266649z" fill="#8B6651"></path>
    <path d="M168.89066244 152.82227285l4.89599988 14.87599962-7.87066647 2.39999994-3.83866657-15.06933295z"
          fill="#734D60"></path>
    <path d="M235.11386079 108.48107395l9.59866643 40.88533232-14.68533297 2.2066666-6.04666652-41.65199895z"
          fill="#E8CAB6"></path>
    <path d="M236.55399409 158.2922727l8.15866646-8.92666643-14.68533297 2.20799994z" fill="#8B6651"></path>
    <path d="M196.0527951 113.66347383l27.9279993-3.74266658 6.04666652 41.6533323zM242.6002606 140.1536065l14.10799965-36.95066575-21.59466613 5.27866654z"
          fill="#C3987B"></path>
    <path d="M192.40559519 104.64187405l24.28133273 6.25599984-32.0559992 3.82266658z" fill="#474747"></path>
    <path d="M254.3098603 173.16800567l-18.71599952-6.14266651-21.01866614 9.2133331z" fill="#734e61"></path>
    <path d="M234.5390608 186.02933868l19.77066618-12.861333-18.52399954 4.99066653-21.21066614-1.91999995z"
          fill="#b2869c"></path>
    <path d="M262.9466601 101.28387413l-27.83333264 7.19733316 22.1706661-16.79466625z" fill="#474747"></path>
    <path d="M277.82292639 41.2981423l-103.7479974 84.26666456-78.41199805-24.28133273 26.67999933-30.32933257 130.43066341-69.3893316z"
          fill="#4F5253"></path>
    <path d="M95.6627976 101.28387413l19.86666618-35.99066576 137.24399657-63.7279984z" fill="#474747"></path>
    <path d="M299.32159252 41.68227562L174.07359565 125.5649402 252.77359368 1.5649433z" fill="#6F7173"></path>
    <path d="M245.5749272 240.15827066l13.53333299-3.35866658 5.94933318-7.48533315 39.73466568 1.34266664 21.78533279 20.44266615-22.93733276 18.52399954-51.53866538 12.85999968z"
          fill="#734e61"></path>
    <path d="M304.79292571 230.65693757l45.68266553 1.43999996-7.38933315 27.25733265-39.44533235 10.26933308z"
          fill="#734D60"></path>
    <path d="M152.76759618 241.4069373l10.36533308-13.629333 5.08666653-1.91866661 26.20133268 14.97066629 28.02533264 13.437333 9.4053331 16.98666624-8.25466647 44.43599889-19.29066618 22.84399943-43.57199891 31.95866586 8.73333311-54.1306653z"
          fill="#96637d"></path>
    <path d="M204.3059949 338.5338682l-68.52533163 80.23466466-2.01599995-55.37733194 35.70266578-47.02933216zM259.9719935 318.37893537l11.03599972 43.37999892-35.22266578-24.37733272 11.51733304 20.53866615-23.70533274-42.23066561-1.15199997-61.42266513 23.22533275-17.17866624-5.37466653-11.0386664 20.73199948 5.18399988 3.64533325 6.04533318z"
          fill="#b2869c"></path>
    <path d="M259.9719935 318.37893537l28.4079993 59.50399852-5.75866653 42.80399893-35.31866579-62.7666651-11.51733304-20.53866615z"
          fill="#d1a2b9"></path>
    <path d="M232.61852752 209.73440476l7.67733314 16.31599959 4.70399988 6.8146665.67199998 4.22266656-9.78933308 14.68399963-13.43599967 2.4946666zM168.21946246 225.85867102l8.15733313-17.56399956 46.06933218 45.97199885-34.45599914-.09466666z"
          fill="#734e61"></path>
    <path d="M168.21946246 225.85867102l-30.4226659 7.96533313-2.20799995 14.39599964v.096l39.25333235-13.05199967z"
          fill="#b2869c"></path>
    <path d="M240.29626066 226.05013768l24.76133271 3.26399992-.38399999 7.96533313-19.00266619-.192-1.82399995-3.83866656zM235.78586077 337.38146823l-31.47999921 1.15199997 19.29199952-22.84399943z"
          fill="#d1a2b9"></path>
    <path d="M495.62372094 182.69400543l3.45066658-5.39199986 7.87333314 11.00133306-6.14666651 1.94133328zM378.8202572 261.10227014l3.55866657-1.5093333L386.908257 266.71027l-2.26533327 2.91333326z"
          fill="#505353" class="an1"></path>
    <path d="M216.2063946 279.893203l6.7186665-6.62399983 5.56666652 6.81599983-5.47066653 6.81333316zM216.68679458 304.46226906l6.62133317-6.33466651 5.75999986 6.7186665-5.47066653 6.42933317z"
          fill="#d1a2b9"></path>
    <g clip-path="url(#c3)" transform="matrix(1.33333 0 0 -1.33333 0 533.33333)">
        <path d="M189.4277 317.6812c-2.591 0-4.607-2.015-4.607-4.607 0-2.519 2.016-4.606 4.607-4.606 2.519 0 4.608 2.087 4.608 4.606 0 2.592-2.089 4.607-4.608 4.607M154.6689 311.6929c-2.519 0-4.678-2.015-4.678-4.606 0-2.52 2.159-4.607 4.678-4.607 2.592 0 4.607 2.087 4.607 4.607 0 2.591-2.015 4.606-4.607 4.606"
              fill="#2b2c2b"></path>
        <path d="M180.2944 12.7187l-4.246.072-2.808 16.989 2.664 11.516 10.076-6.766-2.159-6.767zM127.2441 34.3848l-6.622-14.54 4.895-12.668z"
              fill="#734e61"></path>
        <path d="M140.7769 37.625l5.038-9.934-6.622-8.278-13.388-2.591 1.439 17.563z" fill="#DFBDA5"></path>
        <path d="M125.8052 16.8223l20.01 10.869 2.448-4.391-4.247-6.478-18.499-4.535z" fill="#96637d"></path>
        <path d="M125.5171 12.2871l22.746 11.013 7.054-11.013-11.157-2.087z" fill="#96637d"></path>
        <path d="M190.6602 44.2471l11.517-12.453-5.975-6.479-9.069-3.238-11.229 19.219z" fill="#DFBDA5"></path>
        <path d="M187.1328 22.0771l15.044 9.717 3.527-3.455-5.399-6.046-10.797-3.312z" fill="#96637d"></path>
        <path d="M189.5078 17.9736l16.196 10.365 10.869-10.365-14.324-2.16z" fill="#96637d"></path>
        <path d="M125.517 7.177h29.8v5.11h-29.8zM183.8218 27.7627l-2.231-2.087.936-2.16 10.581-11.013h23.465v5.471h-19.506z"
              fill="#734e61"></path>
    </g>
</svg>