<svg xmlns="http://www.w3.org/2000/svg" viewBox="0 0 533.33331 533.33331" height="533.33331" width="533.33331"
     class="logician">
    <defs>
        <clipPath id="a2">
            <path d="M0 400h400V0H0z"></path>
        </clipPath>
        <clipPath id="b2">
            <path d="M113.695 21.2796h214.892V0H113.695z"></path>
        </clipPath>
        <clipPath id="c2">
            <path d="M0 400h400V0H0z"></path>
        </clipPath>
    </defs>
    <title>Logician (INTP) personality</title>
    <g clip-path="url(#a2)" transform="matrix(1.33333 0 0 -1.33333 0 533.33333)">
        <g clip-path="url(#b2)" opacity=".10000598">
            <path d="M113.6953 7.6798l112.545-7.68 102.347 11.641-100.186 9.639z" fill="#2b2b2b"></path>
        </g>
    </g>
    <path d="M251.14479372 524.49879689l7.41466648-12.06533303-7.96133313-20.22666617-6.98533316 10.33333308 2.41733327 21.95866612zM343.48145808 513.87186382l4.16133323-15.9679996-5.61866653-10.46533307-6.69599983-6.01333319-3.68666657 12.42133303 5.84266652 20.02533283z"
          fill="#594165" fill-rule="evenodd"></path>
    <path d="M316.49785875 349.36826793l77.46666473 78.54133137-59.43466518-113.67733049-13.33466633 9.3813331z"
          fill="#ececeb" fill-rule="evenodd"></path>
    <path d="M321.1949253 344.41360139l72.76933152 83.49599791-43.52799891 40.67466565-22.51199944-62.08533178z"
          fill="#c4c4c4" fill-rule="evenodd"></path>
    <path d="M192.49786185 467.23333165l157.93866272 1.35066664-13.72133299-34.92133246-111.48133054-7.61599981z"
          fill="#8f8f8f" fill-rule="evenodd"></path>
    <path d="M269.29465993 490.73599773l1.89866662-50.19066541-37.85733238-.00133333 17.2613329 51.66266537 12.96799967 11.63866638zM352.44292452 477.40959806l-8.68933311-36.8653324H307.9815923l27.34666598 40.87999897 13.05866634 15.82533294z"
          fill="#C3987B" fill-rule="evenodd"></path>
    <path d="M343.75372474 440.54453232l-27.25599932-7.24933315-8.51599979 7.24933315 7.15199982 10.69199973zM269.56065993 483.67666457l-23.48799942-5.01199987 2.83199993 8.47466645z"
          fill="#8B6651" fill-rule="evenodd"></path>
    <path d="M335.32839162 481.42466463l17.11466624-4.01466657 37.43866573 36.46133243h-35.22399912zM250.5978604 492.20653103l18.69733287-1.47066663 17.98133288 33.76266582h-36.1319991z"
          fill="#785d88" fill-rule="evenodd"></path>
    <path d="M293.98092598 256.74827025l27.21466599 87.66533114 13.33466633-30.18133258 4.4839999-69.79599825z"
          fill="#8f8f8f"></path>
    <path d="M148.0315963 57.76014189l-18.9586662 48.19866546-40.15733232 53.36666533 13.345333-89.72533109z"
          fill="#b3889d" fill-rule="evenodd"></path>
    <path d="M135.14986329 258.46733687l-42.41999894-29.55199926 39.603999-11.88666637 14.8786663 5.4293332zM148.0315963 57.76014189l-59.11599852 101.5653308 56.38933192-17.3213329z"
          fill="#96637c" fill-rule="evenodd"></path>
    <path d="M201.6957283 186.44773867l-66.54533168 72.0199982-6.07733318-97.6253309z" fill="#543042"
          fill-rule="evenodd"></path>
    <path d="M88.91506444 159.32493935l40.15733233-20.61333282 30.29333258 10.73199973 28.0039993 16.61333292 14.32533297 20.39066616z"
          fill="#734c5f" fill-rule="evenodd"></path>
    <path d="M129.07266344 138.7118732l54.22799864 28.70266595-23.10399942-35.94133244z" fill="#543042"
          fill-rule="evenodd"></path>
    <path d="M233.33586083 334.25146831l57.70266523-4.0879999 27.23599932 24.2879994 25.47866603 86.09466451h-72.55999819z"
          fill="#785d88" fill-rule="evenodd"></path>
    <path d="M275.09519312 195.73893844l26.558666 67.04399832 37.3613324-18.3466662.61066666-9.53599977-37.97199905-43.44799891z"
          fill="#dddddc" fill-rule="evenodd"></path>
    <path d="M278.6162597 30.15920925l9.6293331 6.8306665 39.67866567 110.43199723-43.58933225 19.0546662L267.17626 220.8125378l-41.94266562-22.91999942-53.29066534-64.01333174-15.34399961-88.87199778 88.99066444-40.31599899z"
          fill="#DFBDA5" fill-rule="evenodd"></path>
    <path d="M267.17665999 220.81293781l7.5559998-14.3946663-3.01066658-.00133334-20.82266615-19.7399995L206.6446615 75.43827478 190.43932857 61.6169418l-33.83999915 78.16799805 26.69733266 27.62533264 7.35866649 4.03333323 11.04266639 15.00533296 23.5359994 24.35466606 18.7306662 10.00933308z"
          fill="#C3987B" fill-rule="evenodd"></path>
    <path d="M233.33586083 188.87813861l38.38666571 17.53999956v-.00133333l9.50799976-17.6733329 3.10399992-22.2666661z"
          fill="#8B6651" fill-rule="evenodd"></path>
    <path d="M151.59359621 42.55014227l16.80933291 25.20399937 22.03733279-6.13733318 48.41066545-17.27066624 15.35199962-17.01866624L246.3242605.36881z"
          fill="#b3889d"></path>
    <path d="M183.30066208 167.41400581l7.8799998-10.97333305 10.51466641 30.00666591z" fill="#8B6651"
          fill-rule="evenodd"></path>
    <path d="M183.30066208 167.41400581l12.73866635-17.73866622-29.4013326-33.0813325-10.03866641 23.19066608z"
          fill="#DFBDA5" fill-rule="evenodd"></path>
    <path d="M169.84239575 128.86734011l11.52666638 14.09333298-18.97866619-3.60666657z" fill="#8B6651"
          fill-rule="evenodd"></path>
    <path d="M203.28092825 156.96600608l-5.78133319 5.80399985-12.29466636-12.3159997 6.09199985-6.1146665z" fill="#fff"
          fill-rule="evenodd"></path>
    <path d="M288.9677261 114.6414738l-4.51866654 8.82399978-10.95599973-3.22266659z" fill="#8B6651"></path>
    <path d="M218.94052786 81.09720797l8.0799998-1.48666663 5.3253332-6.6226665h11.61866637l-15.5519996-3.68533324zM270.4278599 65.4297417l6.22133318-2.07866662 4.1479999-9.80133309h8.98799978l-12.02933304-3.46266658z"
          fill="#734c5f"></path>
    <path d="M249.96706042 145.1465397l16.01866626-4.29066655 14.12133298 4.29066655-8.38533312-9.11466643-5.37866653 1.60799996-2.85999993-2.68133327z"
          fill="#594165"></path>
    <path d="M250.8274604 144.91627304l8.72399978 3.08933326 15.5439996-4.38266656-9.11066643-2.7666666z"
          fill="#9075a0"></path>
    <path d="M301.17505914 94.92080763l-15.68399961 11.03866639-4.44133322-7.41733315zM231.45226088 120.24334033l39.47599901-6.4026665-.20133332-11.01333307zM222.24239444 94.88240763l33.21466584-.26933333-4.0879999-10.3186664zM293.478926 69.03547494l-9.14399978 14.60399964-4.22799989-9.86666642z"
          fill="#C3987B"></path>
    <path d="M238.85039403 44.34534222l39.76533234-14.1866663-32.2919992-29.7893326z" fill="#96637c"></path>
    <path d="M166.63839583 116.59400709l24.65866605 27.74533263 10.34266641-15.27999961-26.14933268-32.91333251 14.94933296-34.52799914-38.8466657-19.06799952-22.51999943 96.16133093 18.9386662.73866664 8.58666645.33466666z"
          fill="#734c5f" fill-rule="evenodd"></path>
    <path d="M235.55639411 245.22480387l-4.16933323 19.53866618 33.6493325 16.28399959 11.9839997-5.97733318-22.5986661-28.04266597zM273.60599316 200.54147165l36.13066576 58.27199855 14.27066631-41.7853323z"
          fill="#ececeb" fill-rule="evenodd"></path>
    <path d="M301.65425913 191.45280521l47.60533214-32.59466585 43.49199891 7.44666648-53.125332 68.59466495z"
          fill="#c4c4c4" fill-rule="evenodd"></path>
    <path d="M392.75185685 166.3042725l4.57599988-60.13866515-16.80399958-12.2479997-31.26399921 64.94133171z"
          fill="#a3a3a3" fill-rule="evenodd"></path>
    <path d="M376.92652391 53.504542l-13.89066632-36.54666576-13.637333 3.76133324 6.9546665 36.84399908-14.3146663 51.8559987 11.80266636 9.76666643 27.91466597-7.69199981 27.9119993-7.69466647 5.13599988-14.43466631z"
          fill="#ececeb" fill-rule="evenodd" class="an1"></path>
    <path d="M409.82625642 90.55814107l-20.47999949-19.38933285-35.12933245 10.25333308-7.30399982 26.46399934 7.9439998 6.57199983 51.51733205-14.19999964z"
          fill="#785d88" class="an1"></path>
    <path d="M373.97199065 56.67347525l8.77199978-20.3159995 19.66933284 29.80799926-2.08933328 9.49066643-11.00533306-4.35199989z"
          fill="#DFBDA5" fill-rule="evenodd" class="an1"></path>
    <path d="M360.54079099 53.25987534l14.39199964 22.11599944 14.3866663-4.07066656-6.5746665-34.94799913z"
          fill="#C3987B" fill-rule="evenodd" class="an1"></path>
    <path d="M363.22065759 103.85334074l-2.28666661 4.93066654-4.93599988-2.2906666 2.29333328-4.92933322zM359.11199102 96.24867426l-.98799997 2.12266661-2.12533328-.98666664.98666664-2.12399994zM368.04705747 102.54960744l-.98799998 2.12399994-2.12533328-.98666664.98799998-2.12399995zM368.04705747 95.67294094l-.98799998 2.12399995-2.12533328-.98666664.98799998-2.12533328z"
          fill="#a688ba" fill-rule="evenodd" class="an2"></path>
    <path d="M274.73239313 339.0406682l69.0213316 101.1613308-22.5586661-95.78799761-22.38933277-7.32266648z"
          fill="#9075a0" fill-rule="evenodd"></path>
    <path d="M308.16172563 289.96520275l-6.49733317-27.13199932-32.1039992 10.74799973 5.1853332 65.0933317.34933333.40666666 46.09999885 5.33199987z"
          fill="#594165" fill-rule="evenodd"></path>
    <path d="M166.63839583 116.59400709l-5.3133332 12.27333302-4.72666654-15.89333293 56.23199859-22.27599945 6.11066651 15.0706663z"
          fill="#594165"></path>
    <path d="M288.9677261 114.6414738l-15.47466627 5.6013332-18.03599955-45.04133221 15.47066628-5.6013332z"
          fill="#E8CAB6"></path>
    <path d="M313.27905883 82.91854126l-25.48399936 9.25466644-7.45466648-18.38799954 25.64799936-9.27199977zm-83.58266457 30.35333257l-7.45333315-18.38933287 29.1253326-10.58799973 7.29199982 18.40399954zm54.06666531-12.0159997l38.8666657-14.13999964-12.55333302-31.69466588L212.829728 90.69854107l12.83466635 31.65466587 42.34933227-15.45733295-9.91333308-25.0213327 15.49199961-5.70399986z"
          fill="#594165"></path>
    <path d="M225.23346104 210.80293806l32.26933252 41.16666564 7.53333315 29.0773326 9.69599976 57.9933319-5.17066654 144.63599637-77.06399808-16.44266625 49.76399876-137.0693299-49.76399876-86.71199784z"
          fill="#dddddc" fill-rule="evenodd"></path>
    <path d="M274.73239313 339.0406682l-82.2346646 128.19333012 40.83866564-132.98266334 22.11999944-4.0879999z"
          fill="#c4c4c4" fill-rule="evenodd"></path>
    <path d="M277.01719307 275.11040312l-33.0533325 5.93733319-24.3639994 22.66133276 13.73599966 30.5426659 41.39599897 4.78933322v-.00133333l2.28533327-63.9279984z"
          fill="#8f8f8f" fill-rule="evenodd"></path>
    <path d="M225.23346104 210.80293806l-7.38799982 40.19066567 39.65733234.97599997-11.29733305-19.28666618z"
          fill="#ececeb" fill-rule="evenodd"></path>
    <path d="M267.17665999 220.81293781l-8.34133313 14.08666632-10.5266664 5.33999986-23.0746661-29.43599926z"
          fill="#9075a0" fill-rule="evenodd"></path>
    <path d="M267.22572665 220.82600448l-.04933333-.01333333-18.86799953 19.42666618 9.19466644 11.72933304 12.985333-11.02533306z"
          fill="#594165" fill-rule="evenodd"></path>
    <path d="M192.49786185 243.45227058l27.10133266 60.25866516 90.13733108-44.89866554-25.4013327-7.71199981-26.83199933.86933331z"
          fill="#9DA1A2" fill-rule="evenodd"></path>
    <path d="M309.72892559 258.8114702l-8.07466646-67.35866499-9.73999976-11.58266637h-11.8079997l-22.6026661 72.09866486z"
          fill="#c4c4c4" fill-rule="evenodd"></path>
    <path d="M280.106793 179.87027217l10.46799974-34.3866658 18.66799953 8.07066646 9.03199977 15.24799962-16.61999958 22.6506661z"
          fill="#C3987B" fill-rule="evenodd"></path>
    <path d="M290.5746594 145.48400636l24.84666605-7.49066648 12.50266635 9.42799977-15.27466628 5.64133319z"
          fill="#C3987B" fill-rule="evenodd"></path>
    <path d="M290.5746594 145.48400636l37.3493324 1.93733329 2.38533328 17.06666624-12.03466637 4.31466656z"
          fill="#DFBDA5" fill-rule="evenodd"></path>
    <g clip-path="url(#c2)" transform="matrix(1.33333 0 0 -1.33333 0 533.33333)">
        <path d="M189.0062 326.6407c0-1.805-1.463-3.268-3.268-3.268-1.806 0-3.269 1.463-3.269 3.268 0 1.805 1.463 3.268 3.269 3.268 1.805 0 3.268-1.463 3.268-3.268M224.969 339.958c0-1.805-1.463-3.268-3.268-3.268-1.806 0-3.269 1.463-3.269 3.268 0 1.805 1.463 3.268 3.269 3.268 1.805 0 3.268-1.463 3.268-3.268"
              fill="#2b2b2b" fill-rule="evenodd"></path>
    </g>
</svg>