<svg xmlns="http://www.w3.org/2000/svg" viewBox="0 0 533.33331 533.33331" height="533.33331" width="533.33331"
     class="protagonist">
    <defs>
        <clipPath id="a7">
            <path d="M0 400h400V0H0z"></path>
        </clipPath>
        <clipPath id="b7">
            <path d="M67.9358 37.3428H327.543V0H67.9358z"></path>
        </clipPath>
        <clipPath id="c7">
            <path d="M0 400h400V0H0z"></path>
        </clipPath>
    </defs>
    <title>Protagonist (ENFJ) personality</title>
    <g clip-path="url(#a7)" transform="matrix(1.33333 0 0 -1.33333 0 533.33333)">
        <g clip-path="url(#b7)" opacity=".10000598">
            <path d="M327.5429 14.7167l-26.389 4.94-106.453 17.686-99.982-17.461-26.783-8.462 170.707-11.42z"
                  fill="#2b2b2b"></path>
        </g>
    </g>
    <path d="M369.75519076 464.98786504l-5.47199987-148.0959963-8.41866645-50.22533207-76.99199808-31.32799922-99.23733085 54.56799864-36.30666576 193.63599515 33.70399916 29.35199927 194.07332848.50799999 30.48799924-6.5786665z"
          fill="#436124" class="an4"></path>
    <path d="M340.25852483 442.44573227l-43.36533225 17.65199956 6.4306665 31.89066587h22.31333278l14.62133297-12.66399968z"
          fill="#3f8f6f"></path>
    <path d="M340.25852483 479.32466468l27.73733264 27.49999932-26.798666 6.06933318-38.53599904-6.06933318.66266665-14.83599963z"
          fill="#54b08b"></path>
    <path d="M367.99572413 519.11319702H302.6610591V506.823864h55.11199862l21.65199946-8.15866647z"
          fill="#3f8f6f"></path>
    <path d="M340.25852483 442.44573227l-39.75733234 33.94933249-3.60799991-16.29733293 21.68266612-17.65199956z"
          fill="#36785d"></path>
    <path d="M186.312662 142.5142731l-44.96399887 30.95999923-2.91999992 36.79866575 30.7586659 54.65333196 211.58666137-18.87999952-6.51733317-82.13733128-22.4306661-13.59599966z"
          fill="#b8c745"></path>
    <path d="M351.82665787 150.31253958l-165.5133292-7.79866648-44.96399887 30.96133256-2.91999993 36.79866575 25.82933269-17.78666622 191.60532854-15.91466627 18.39333288-12.66399968z"
          fill="#e8f177"></path>
    <path d="M239.80492734 462.20999844l-6.80933316 27.114666-22.33333278 2.66399993-20.03733283-8.44533313 3.41733325-31.40533254z"
          fill="#3f8f6f"></path>
    <path d="M190.62492857 483.54293124l-13.593333 29.35199927h56.89333192l-.92933331-23.57066608z"
          fill="#54b08b"></path>
    <path d="M233.92532749 523.10466359h-56.89333192v-10.21066641l28.44666596-8.73866645 28.44666596 8.73866645z"
          fill="#3f8f6f"></path>
    <path d="M194.04279515 452.13813203l42.19999894 24.2559994 3.56266658-14.18399965-14.03199965-12.44133302z"
          fill="#36785d"></path>
    <path d="M272.46172652 339.57653484L239.804394 442.44586561l34.19066582 27.28933265 66.26399834-27.28933265-.18666666-100.17466417-25.91466602-11.53066638z"
          fill="#59753c"></path>
    <path d="M203.37252825 363.85173424l-9.3293331 88.28666446 79.951998 17.59599956-1.5333333-130.15733008z"
          fill="#709d52"></path>
    <path d="M340.0727915 207.33867148l15.79066627-30.76533256 56.45199859 84.94266454-74.00799815 28.82266595-5.6453332-16.33333293zM199.45266168 179.7208055l51.43599871 26.950666 46.67199884 35.99466577-25.09866604 96.91066424H205.0233282v-22.68533277l-27.99066597-72.21999819z"
          fill="#59753c"></path>
    <path d="M278.87279303 235.33867078l-6.46399984 81.5533313.05333333 22.68399943h67.61066498l.18533333-31.67866587 15.60533294-131.32399672-32.97866584-3.09866659-1.17866664 13.71733299-14.01999965-.66133332-7.36266648 31.69733254z"
          fill="#709d52"></path>
    <path d="M179.63466218 289.90706942L157.57732939 266.46307l-31.28533255 240.36132732 22.37466611-14.67333297 11.48666638-20.74399948z"
          fill="#59753c" class="an5"></path>
    <path d="M177.0321289 512.89466384l-50.73999872-6.07066651 33.85999915-35.41733245z" fill="#709d52"></path>
    <path d="M205.02279487 339.57653484h135.0506633v25.37866604l-136.70132992-1.10399998z" fill="#99c26d"></path>
    <path d="M157.5777294 266.46307l6.68133316-73.97466481 40.39999899-15.7959996 11.51066638-1.69066663-12.91199968 46.06133218 4.62399989 54.7866653z"
          fill="#728d55"></path>
    <path d="M278.26692638 223.05293776l18.6266662-19.33199952 10.79333306-17.19066624 19.65066618 2.86133327-1.7213333 29.00266594-46.74399883 16.94399957-11.08799972-9.91333308z"
          fill="#34785c"></path>
    <path d="M278.26692638 223.05293776l.60533331 12.28533302-75.61466477-14.27599964-3.80533324-41.3413323 16.71733292-4.71999988 18.94933286 20.55999948z"
          fill="#54b08b"></path>
    <path d="M211.14759472 176.57293892l-4.35066656-73.0813315-9.05066644-18.80133287-17.1253329 7.89466647-3.58933325 94.90933096zM350.7178579 83.72387457l5.14666654 92.84933102-27.22266599-2.36933328-4.35999989-99.56533084z"
          fill="#2b2b2b"></path>
    <path d="M327.33745848 189.39160527l-87.5319978-4.12666657-24.79333272-17.70399956-11.75466637-134.40932997L340.10145816 27.254276z"
          fill="#DFBDA5"></path>
    <path d="M314.15799215 188.77027195l-89.5573311-11.77066637-10.7666664-130.7586634-16.0879996-25.61199936 14.06666632 163.68132924 3.19866659 20.35599949 63.25599842 18.3866662 32.91599917-16.17733292z"
          fill="#C3987B"></path>
    <path d="M264.68519338 134.16973998l12.83999968 8.78666645 12.83999968-8.78666645z" fill="#8B6651"></path>
    <path d="M224.54052772 100.47920749l26.84799933 8.2479998 13.297333 25.44266602 7.57466648-41.0973323-38.24666571-3.46799992zM290.36559274 134.16973998l19.08933286-25.44266603 21.05599947-8.2479998-9.4733331-5.96133318-17.37466623-1.93333328-20.87199948.48799998v25.47599937z"
          fill="#C3987B"></path>
    <path d="M290.36559274 134.16973998l-12.83999968 3.22933325-12.83999968-3.22933325 7.57466648-41.0973323h10.5306664z"
          fill="#E8CAB6"></path>
    <path d="M282.79039293 93.072541l38.24666571 1.4453333 9.4733331 5.96133319-9.4733331-15.78933294zM272.2603932 93.072541l-38.24666572 1.4453333-9.4733331 5.96133319 9.4733331-15.78933294z"
          fill="#474747"></path>
    <path d="M281.89719295 212.66080468l32.26133253-23.89066607-102.3466641-4.45999988z" fill="#8B6651"></path>
    <path d="M234.16199415.31854333L211.81266137 17.3385429l-28.47466595 7.10666649-2.71599994 68.13866496 24.61466606 19.30399952 10.7946664-82.42399794 63.88133173 28.75866595 59.05999852-19.33733285-3.52533324 47.48399881 15.27066628-2.64533327 5.75066652-50.57199873-29.13199927-12.52266636L310.47132558.31854333z"
          fill="#4f5253"></path>
    <path d="M183.33839542 24.44454272l30.49599923 21.7973328 66.07866502 11.9799997L234.16239415.31787665z"
          fill="#6f7173"></path>
    <path d="M221.89946112 144.19093973l108.50133062 6.2946665-3.06399992 38.9066657-102.79599743-4.52666655z"
          fill="#C3987B"></path>
    <path d="M279.913193 58.22214188l58.54533187-12.4239997 18.00933288-12.64666634L310.4718589.31814333z"
          fill="#474747"></path>
    <path d="M240.94239398 156.03907277l9.94666641-1.15599998-11.08399972 10.76533307z" fill="#8B6651"></path>
    <path d="M244.31932723 159.37440602l5.15999987 5.15999987h30.74533256" fill="#8B6651" stroke="#8B6651"
          stroke-width="5.33332" stroke-miterlimit="10"></path>
    <path d="M221.89946112 144.19093973l-14.01866632-5.62799986 3.9319999 45.74799886 12.72799969.55466665z"
          fill="#8B6651"></path>
    <g clip-path="url(#c7)" transform="matrix(1.33333 0 0 -1.33333 0 533.33333)">
        <path d="M232.6282 318.4543c0-2.696-2.185-4.881-4.881-4.881s-4.881 2.185-4.881 4.881 2.185 4.881 4.881 4.881 4.881-2.185 4.881-4.881M188.8913 318.4543c0-2.696-2.185-4.881-4.881-4.881s-4.881 2.185-4.881 4.881 2.185 4.881 4.881 4.881 4.881-2.185 4.881-4.881"
              fill="#2b2b2b"></path>
        <path d="M243.456 14.52h-11v225.732h11z" fill="#c4c4c4" class="an1"></path>
        <path d="M248.1931 240.9304c0-5.654-4.584-10.238-10.238-10.238s-10.237 4.584-10.237 10.238 4.583 10.238 10.237 10.238 10.238-4.584 10.238-10.238"
              fill="#dddddc" class="an1"></path>
        <path d="M219.9135 10.5861l17.64-8.132 10.64 17.428-4.738 152.157-23.542-.131z" fill="#c4c4c4"
              class="an1"></path>
        <path d="M255.1939 171.9078h-17.238l-.402-169.453 17.64 8.131z" fill="#9DA1A2" class="an1"></path>
        <path d="M273.2124 162.3311l10.512 12.119-10.512 10.512-9.96-9.96h-17.748l-7.549 7.549-7.549-7.549h-16.14l-9.96 9.96-12.119-10.512 12.119-12.119 5.851 6.746h20.249l7.549-7.55 7.549 7.55h21.857z"
              fill="#dddddc" class="an1"></path>
        <path d="M118.1833 200.1528l35.584-37.822 59.076 9.842 2.002 17.82-7.733 7.739z" fill="#54b08b"
              class="an3"></path>
        <path d="M212.8428 172.1729l-5.73 25.559 25.093 7.559z" fill="#DFBDA5" class="an3"></path>
        <path d="M309.237 203.8634l-50.607-5.868-9.133-10.359 6.401-12.634 25.104-3.594z" fill="#54b08b"
              class="an2"></path>
        <path d="M232.2057 205.2907l-4.488-16.559 2.108-13.73h26.072l2.733 22.993z" fill="#DFBDA5" class="an2"></path>
        <path d="M232.2057 205.2907l-2.38-30.289-16.983-2.829 3.068 19.195z" fill="#C3987B" class="an2"></path>
    </g>
</svg>