<svg width="303" height="214" viewBox="0 0 303 214" fill="none" xmlns="http://www.w3.org/2000/svg">
<g clip-path="url(#clip0)">
<path opacity="0.1" fill-rule="evenodd" clip-rule="evenodd" d="M19.5789 166.211L96.5762 175.437L167.7 166.211L96.455 160.02L19.5789 166.211Z" fill="black"/>
<path fill-rule="evenodd" clip-rule="evenodd" d="M73.8562 163.391L62.5998 161.323L51.2676 163.391L62.6907 165.213L73.8562 163.391Z" fill="#72CBCC"/>
<path fill-rule="evenodd" clip-rule="evenodd" d="M73.8562 163.391V166.796L62.7109 168.684L62.6907 165.213L73.8562 163.391Z" fill="#50A9AA"/>
<path fill-rule="evenodd" clip-rule="evenodd" d="M62.7109 168.684L51.2574 166.796L51.2675 163.391L62.6906 165.213L62.7109 168.684Z" fill="#369496"/>
<path d="M65.8621 140.85H60.0193V163.51H65.8621V140.85Z" fill="#1C7678"/>
<path fill-rule="evenodd" clip-rule="evenodd" d="M93.4704 136.351L62.6806 130.687L31.6635 136.351L62.9179 141.33L93.4704 136.351Z" fill="#72CBCC"/>
<path fill-rule="evenodd" clip-rule="evenodd" d="M93.4705 136.351V139.685L62.9836 144.854L62.918 141.33L93.4705 136.351Z" fill="#50A9AA"/>
<path fill-rule="evenodd" clip-rule="evenodd" d="M62.9835 144.854L31.6382 139.685L31.6634 136.351L62.9179 141.33L62.9835 144.854Z" fill="#369496"/>
<path d="M93.5917 57.0857H91.0364V167.714H93.5917V57.0857Z" fill="#369496"/>
<path d="M96.1368 57.0857H93.5865V167.714H96.1368V57.0857Z" fill="#72CBCC"/>
<path opacity="0.1" d="M96.1419 57.0857H91.0364V76.8498H96.1419V57.0857Z" fill="black"/>
<path fill-rule="evenodd" clip-rule="evenodd" d="M93.5563 8.55524L66.3621 53.1814L93.5563 59.9533V8.55524Z" fill="#5EC0D9"/>
<path fill-rule="evenodd" clip-rule="evenodd" d="M93.5563 8.55524L66.362 53.1814L30.8252 44.3313L93.5563 8.55524Z" fill="#3AA0BA"/>
<path d="M0.0151367 36.6558L30.8252 44.3313L93.5563 8.55524L0.0151367 36.6558Z" fill="#5EC0D9"/>
<path fill-rule="evenodd" clip-rule="evenodd" d="M93.5563 8.55524L120.745 53.1814L93.5563 59.9533V8.55524Z" fill="#3AA0BA"/>
<path fill-rule="evenodd" clip-rule="evenodd" d="M93.5563 8.55524L120.745 53.1814L156.287 44.3313L93.5563 8.55524Z" fill="#5EC0D9"/>
<path fill-rule="evenodd" clip-rule="evenodd" d="M93.5563 8.55524L156.287 44.3313L187.092 36.6558L93.5563 8.55524Z" fill="#3AA0BA"/>
<path fill-rule="evenodd" clip-rule="evenodd" d="M205.878 104.399L214.065 124.382L209.353 123.911L206.232 120.525L205.368 116.026L205.878 104.399Z" fill="#C3987B"/>
<path fill-rule="evenodd" clip-rule="evenodd" d="M187.875 166.758L187.613 182.09L191.279 188.601L189.213 189.262L181.957 188.753L183.911 181.824L178.275 167.714L179.745 154.974L187.875 166.758Z" fill="#C3987B"/>
<path fill-rule="evenodd" clip-rule="evenodd" d="M178.275 167.714L187.815 170.263L187.875 166.758L182.911 161.385L178.275 167.714Z" fill="#8B6651"/>
<path opacity="0.1" fill-rule="evenodd" clip-rule="evenodd" d="M164.494 188.824L198.283 184.064L230.447 187.797L199.864 193.775L164.494 188.824Z" fill="black"/>
<path fill-rule="evenodd" clip-rule="evenodd" d="M191.324 190.336L181.957 190.503V188.753L187.158 188.054L191.279 188.601L191.324 190.336Z" fill="#755800"/>
<path fill-rule="evenodd" clip-rule="evenodd" d="M178.31 99.8239L165.65 124.995L172.003 123.254L176.25 120.354L181.436 112.873L180.123 104.532L178.31 99.8239Z" fill="#DFBDA5"/>
<path fill-rule="evenodd" clip-rule="evenodd" d="M218.049 187.607L205.126 187.611L204.949 184.297L211.257 185.533L218.049 187.607Z" fill="#755800"/>
<path fill-rule="evenodd" clip-rule="evenodd" d="M205.606 159.069L206.954 164.88L208.797 179.503L218.266 185.909L216.61 186.47L214.403 186.689L204.949 184.297L205.197 180.297L194.354 160.476L205.606 159.069Z" fill="#C3987B"/>
<path fill-rule="evenodd" clip-rule="evenodd" d="M214.403 186.689L218.266 185.909L220.013 185.234L218.049 187.607L214.403 186.689Z" fill="#8B6651"/>
<path fill-rule="evenodd" clip-rule="evenodd" d="M213.171 182.461L211.666 185.995L213.413 186.437L214.655 183.469L213.171 182.461Z" fill="#9E7700"/>
<path fill-rule="evenodd" clip-rule="evenodd" d="M181.957 188.753L187.86 187.355L191.279 188.601L181.957 188.753Z" fill="#8B6651"/>
<path fill-rule="evenodd" clip-rule="evenodd" d="M188.89 184.363L182.987 185.105L182.583 186.527L189.582 185.59L188.89 184.363Z" fill="#9E7700"/>
<path fill-rule="evenodd" clip-rule="evenodd" d="M199.167 169.269L206.954 164.88L201.727 163.425L197.283 165.831L199.167 169.269Z" fill="#8B6651"/>
<path fill-rule="evenodd" clip-rule="evenodd" d="M217.519 65.1606L219.488 70.9148L210.969 73.5827L209.125 63.8433L217.519 65.1606Z" fill="black"/>
<path fill-rule="evenodd" clip-rule="evenodd" d="M209.903 54.0279L220.236 61.67L210.969 73.5827L206.277 58.0035L209.903 54.0279Z" fill="#4F5253"/>
<path fill-rule="evenodd" clip-rule="evenodd" d="M220.236 61.67L210.514 65.2653L206.697 69.8163L210.969 73.5827L220.236 61.67Z" fill="#2B2B2B"/>
<path fill-rule="evenodd" clip-rule="evenodd" d="M153.944 75.9177L149.657 79.9076L147.879 85.8568L167.776 99.2342L183.426 94.4358L175.235 75.8844L153.944 75.9177Z" fill="#2B2B2B"/>
<path fill-rule="evenodd" clip-rule="evenodd" d="M167.776 99.2342L184.729 96.7708L182.876 87.9921L167.776 99.2342Z" fill="black"/>
<path fill-rule="evenodd" clip-rule="evenodd" d="M170.316 93.3944L167.776 99.2342L180.724 89.5947L177.25 80.4497L174.972 84.8677L170.316 93.3944Z" fill="#2B2B2B"/>
<path fill-rule="evenodd" clip-rule="evenodd" d="M210.736 69.2742L217.024 77.2635L211.408 81.6434L211.211 78.0767L212.691 76.8973L211.029 74.7383L209.802 73.0596L210.736 69.2742Z" fill="#856400"/>
<path fill-rule="evenodd" clip-rule="evenodd" d="M176.508 82.0476L182.775 91.9344L190.34 106.824L199.601 102.126L199.157 92.7333L211.969 91.9677L209.903 54.0279L184.805 70.3061L176.508 82.0476Z" fill="#DFBDA5"/>
<path fill-rule="evenodd" clip-rule="evenodd" d="M188.39 77.6059L190.511 93.1566L199.157 92.7333L198.733 97.1465L199.601 103.619L195.182 105.112L190.34 106.819L180.517 89.2332L180.118 86.3656L176.508 82.0476L182.719 71.7375L188.39 77.6059Z" fill="#C3987B"/>
<path fill-rule="evenodd" clip-rule="evenodd" d="M203.954 65.2272L203.131 66.4922L203.565 74.2913L207.116 68.0092L208.62 65.7931L203.954 65.2272Z" fill="#C3987B"/>
<path fill-rule="evenodd" clip-rule="evenodd" d="M200.233 66.6681L197.869 65.3984L192.102 67.3149L198.071 72.1798L200.606 77.1494L200.233 66.6681Z" fill="#C3987B"/>
<path fill-rule="evenodd" clip-rule="evenodd" d="M210.04 56.4722L188.633 78.9612L183.77 80.3974L183.906 75.7655L197.869 65.3984L209.903 54.0279L210.04 56.4722Z" fill="#8B6651"/>
<path fill-rule="evenodd" clip-rule="evenodd" d="M185.012 84.4206L180.517 89.2332L176.508 82.0476L179.755 75.0237L186.355 77.3396L185.012 84.4206Z" fill="#8B6651"/>
<path fill-rule="evenodd" clip-rule="evenodd" d="M147.879 85.8568L147.758 78.7567L153.944 75.9177L158.817 78.2384L147.879 85.8568Z" fill="#8F8F8F"/>
<path fill-rule="evenodd" clip-rule="evenodd" d="M153.944 75.9177L147.879 85.8568L170.316 93.3944L180.356 74.9999L153.944 75.9177Z" fill="#474747"/>
<path fill-rule="evenodd" clip-rule="evenodd" d="M168.19 66.1212L147.172 69.512L166.67 87.954L174.25 80.7969L184.623 76.9592L187.678 75.3518L168.19 66.1212Z" fill="#2B2B2B"/>
<path fill-rule="evenodd" clip-rule="evenodd" d="M166.14 70.6105L147.167 69.512L167.387 65.7408L167.761 67.7619L166.14 70.6105Z" fill="#737373"/>
<path fill-rule="evenodd" clip-rule="evenodd" d="M192.122 47.8409L171.882 48.1405L166.14 70.6105L179.835 59.6537L192.122 47.8409Z" fill="#4F5253"/>
<path fill-rule="evenodd" clip-rule="evenodd" d="M213.479 50.1093L188.39 77.6059L184.603 77.1113L178.22 77.6059L172.129 75.4802L162.08 74.1676L186.032 61.8793L213.479 50.1093Z" fill="#474747"/>
<path fill-rule="evenodd" clip-rule="evenodd" d="M213.479 50.1093L198.798 41.9963L162.08 74.1676L213.479 50.1093Z" fill="#8F8F8F"/>
<path fill-rule="evenodd" clip-rule="evenodd" d="M204.212 62.3358L208.514 65.6076L203.954 65.2272L204.212 62.3358Z" fill="#2B2B2B"/>
<path fill-rule="evenodd" clip-rule="evenodd" d="M200.232 66.6681L203.131 66.4922L203.717 76.9924L200.606 77.1494L200.232 66.6681Z" fill="#E8CAB6"/>
<path fill-rule="evenodd" clip-rule="evenodd" d="M200.606 77.1494L202.323 78.8471L203.717 76.9924L200.606 77.1494Z" fill="#8B6651"/>
<path fill-rule="evenodd" clip-rule="evenodd" d="M191.935 81.6767L202.338 79.5937L209.353 81.3247L202.722 90.0417L191.935 81.6767Z" fill="#856400"/>
<path fill-rule="evenodd" clip-rule="evenodd" d="M195.021 82.2045L207.08 81.981L203.646 86.5939L200.833 86.67L195.021 82.2045Z" fill="#474747"/>
<path fill-rule="evenodd" clip-rule="evenodd" d="M197.93 84.4349L205.363 84.2875L207.08 81.981L195.021 82.2045L197.93 84.4349Z" fill="white"/>
<path fill-rule="evenodd" clip-rule="evenodd" d="M184.719 77.1256L185.012 84.4206L174.972 84.8676L176.508 82.0476L181.946 81.6672L181.8 78.8756L184.719 77.1256Z" fill="#856400"/>
<path fill-rule="evenodd" clip-rule="evenodd" d="M199.157 92.7333L187.703 93.2945L199.601 103.619L199.157 92.7333Z" fill="#8B6651"/>
<path fill-rule="evenodd" clip-rule="evenodd" d="M153.944 75.9177L147.879 85.8568L158.944 80.6447L153.944 75.9177Z" fill="#4F5253"/>
<path fill-rule="evenodd" clip-rule="evenodd" d="M172.129 75.4802L166.67 87.954L176.508 82.0476L184.719 77.1256L178.149 76.2648L172.129 75.4802Z" fill="black"/>
<path fill-rule="evenodd" clip-rule="evenodd" d="M178.311 99.8239L205.878 104.399L197.314 110.253L178.311 99.8239Z" fill="#DFBDA5"/>
<path fill-rule="evenodd" clip-rule="evenodd" d="M178.311 99.8239L183.022 119.493L192.945 112.963L197.218 108.641L178.311 99.8239Z" fill="#9E7700"/>
<path fill-rule="evenodd" clip-rule="evenodd" d="M197.218 108.641L205.879 104.399L206.232 120.525L201.404 114.3L197.218 108.641Z" fill="#9E7700"/>
<path fill-rule="evenodd" clip-rule="evenodd" d="M183.022 119.493L183.355 126.412L201.99 131.187L206.232 120.525L197.218 108.641L183.022 119.493Z" fill="#755800"/>
<path fill-rule="evenodd" clip-rule="evenodd" d="M183.355 126.412L201.99 131.187L201.051 133.973L202.646 135.586L204.636 148.896L189.582 144.526L175.326 137.312L183.355 126.412Z" fill="#F4D75D"/>
<path fill-rule="evenodd" clip-rule="evenodd" d="M175.326 137.312L204.636 148.896L192.102 159.069L178.22 167.709L175.326 137.312Z" fill="#E5C828"/>
<path fill-rule="evenodd" clip-rule="evenodd" d="M204.636 148.896L206.954 164.88L178.219 167.709L204.636 148.896Z" fill="#CCAD14"/>
<path fill-rule="evenodd" clip-rule="evenodd" d="M182.007 128.248L197.218 137.312L202.641 135.586L201.99 131.187L195.021 127.268L182.007 128.248Z" fill="#CCAD14"/>
<path fill-rule="evenodd" clip-rule="evenodd" d="M191.935 129.789L197.218 135.234L201.99 131.187L199.318 130.502L191.935 129.789Z" fill="#8B6651"/>
<path d="M196.672 72.6506C197.609 72.6506 198.369 71.9352 198.369 71.0528C198.369 70.1703 197.609 69.4549 196.672 69.4549C195.735 69.4549 194.975 70.1703 194.975 71.0528C194.975 71.9352 195.735 72.6506 196.672 72.6506Z" fill="black"/>
<path d="M206.697 72.2654C207.634 72.2654 208.393 71.55 208.393 70.6676C208.393 69.7851 207.634 69.0697 206.697 69.0697C205.759 69.0697 205 69.7851 205 70.6676C205 71.55 205.759 72.2654 206.697 72.2654Z" fill="black"/>
<path fill-rule="evenodd" clip-rule="evenodd" d="M176.25 120.354L187.678 124.995L188.895 127.268L187.703 129.38L165.65 124.995L176.25 120.354Z" fill="#C3987B"/>
<path fill-rule="evenodd" clip-rule="evenodd" d="M187.678 124.995L197.874 121.913L199.318 130.502L187.703 129.38L187.678 124.995Z" fill="#DFBDA5"/>
<path fill-rule="evenodd" clip-rule="evenodd" d="M214.064 124.382L201.99 131.187L200.646 128.59L202.161 126.208L206.232 120.525L214.064 124.382Z" fill="#DFBDA5"/>
<path fill-rule="evenodd" clip-rule="evenodd" d="M202.162 126.208L197.874 121.909L199.318 130.502L201.99 131.187L202.162 126.208Z" fill="#C3987B"/>
<path opacity="0.1" fill-rule="evenodd" clip-rule="evenodd" d="M224.114 184.287L265.448 180.297L303.04 187.088L267.12 191.944L224.114 184.287Z" fill="black"/>
<path fill-rule="evenodd" clip-rule="evenodd" d="M269.806 52.0305L254.823 53.9898L244.637 47.2892L235.865 93.5751L244.703 95.1872L256.722 105.892L264.837 104.356L275.089 95.1872L280.83 83.208L283.956 75.8226L277.24 71.3286L271.372 79.1039L268.019 76.3029L281.724 59.4064L269.806 52.0305Z" fill="#DFBDA5"/>
<path fill-rule="evenodd" clip-rule="evenodd" d="M269.806 52.0305L259.843 98.0263L264.837 104.356L275.856 95.4678L280.512 83.869L273.634 80.426L271.372 79.1039L269.377 76.593L281.017 58.9118L269.806 52.0305Z" fill="#C3987B"/>
<path fill-rule="evenodd" clip-rule="evenodd" d="M276.604 79.5747L278.174 75.6133L282.209 77.1209L276.604 79.5747Z" fill="#8B6651"/>
<path fill-rule="evenodd" clip-rule="evenodd" d="M280.512 83.869L274.917 81.0632L277.588 91.1497L280.512 83.869Z" fill="#8B6651"/>
<path fill-rule="evenodd" clip-rule="evenodd" d="M247.955 75.0712L250.076 77.644L252.838 75.9605L247.955 75.0712Z" fill="#8B6651"/>
<path fill-rule="evenodd" clip-rule="evenodd" d="M261.585 66.0737L257.414 66.7965L252.838 75.9605L255.616 63.0064L261.585 66.0737Z" fill="#C3987B"/>
<path fill-rule="evenodd" clip-rule="evenodd" d="M250.697 62.1551L248.803 71.0765L247.112 63.9289L244.142 61.9792L250.697 62.1551Z" fill="#C3987B"/>
<path fill-rule="evenodd" clip-rule="evenodd" d="M262.55 98.5351L264.837 104.356L255.934 111.37L246.672 95.4678L262.55 98.5351Z" fill="#8B6651"/>
<path fill-rule="evenodd" clip-rule="evenodd" d="M251.066 60.4193L244.541 59.9913L244.142 61.9792L250.697 62.1551L251.066 60.4193Z" fill="#474747"/>
<path fill-rule="evenodd" clip-rule="evenodd" d="M255.995 61.2325L262.337 64.181L261.585 66.0737L255.616 63.0064L255.995 61.2325Z" fill="#474747"/>
<path fill-rule="evenodd" clip-rule="evenodd" d="M260.61 82.0286L240.93 78.4714L248.45 84.9057L260.61 82.0286Z" fill="#8B6651"/>
<path fill-rule="evenodd" clip-rule="evenodd" d="M255.282 82.1998L244.703 80.2357L248.758 84.0402L255.282 82.1998Z" fill="white"/>
<path fill-rule="evenodd" clip-rule="evenodd" d="M267.231 41.4494L280.199 49.6385L274.543 52.4348L269.806 52.0305L254.283 55.1835L259.444 47.8932L267.231 41.4494Z" fill="#474747"/>
<path fill-rule="evenodd" clip-rule="evenodd" d="M280.199 49.6385L291.223 57.2521L284.153 59.1781L280.002 59.1972L269.806 52.0305L280.199 49.6385Z" fill="#737373"/>
<path fill-rule="evenodd" clip-rule="evenodd" d="M291.223 57.2521L283.956 75.8226L276.967 72.7933L273.634 80.426L267.933 77.6059L280.002 59.1972L291.223 57.2521Z" fill="#2B2B2B"/>
<path fill-rule="evenodd" clip-rule="evenodd" d="M254.283 55.1835L267.231 41.4494L244.637 47.2893L254.283 55.1835Z" fill="#8F8F8F"/>
<path fill-rule="evenodd" clip-rule="evenodd" d="M275.856 95.4678L285.916 100.49L283.956 140.203L282.941 142.61L283.684 145.772L252.838 146.775L255.934 111.37L275.856 95.4678Z" fill="#1C7678"/>
<path fill-rule="evenodd" clip-rule="evenodd" d="M275.856 95.4678L273.634 111.827L255.934 111.37L275.856 95.4678Z" fill="#50A9AA"/>
<path fill-rule="evenodd" clip-rule="evenodd" d="M244.703 95.1872L255.934 111.37L252.874 146.371L232.871 145.239L229.517 129.161L235.865 93.5751L244.703 95.1872Z" fill="#369496"/>
<path fill-rule="evenodd" clip-rule="evenodd" d="M253.439 139.875L283.684 145.772L283.957 140.203L264.423 137.122L253.439 139.875Z" fill="#165E60"/>
<path fill-rule="evenodd" clip-rule="evenodd" d="M264.923 128.704L259.631 125.856L258.873 128.704H264.923Z" fill="#C3987B"/>
<path fill-rule="evenodd" clip-rule="evenodd" d="M255.934 111.37L239.946 103.814L246.672 95.4678L255.934 111.37Z" fill="#72CBCC"/>
<path fill-rule="evenodd" clip-rule="evenodd" d="M285.916 100.49L292.016 140.826L281.82 131.187L276.604 123.302L285.916 100.49Z" fill="#72CBCC"/>
<path fill-rule="evenodd" clip-rule="evenodd" d="M249.157 129.023L248.43 122.341L251.788 122.346L255.05 121.49L260.797 123.792L259.843 128.704L249.157 129.023Z" fill="#73CFE5"/>
<path fill-rule="evenodd" clip-rule="evenodd" d="M261.499 123.302L257.646 122.741L255.05 121.49L254.348 129.023L259.843 128.704L261.499 123.302Z" fill="#5EC0D9"/>
<path fill-rule="evenodd" clip-rule="evenodd" d="M264.923 128.704L268.15 133.926L265.898 138.506L253.439 139.875V134.287L254.419 128.704H264.923Z" fill="#DFBDA5"/>
<path fill-rule="evenodd" clip-rule="evenodd" d="M254.419 128.704L249.157 129.023L249.596 135.885L253.439 139.875L254.419 128.704Z" fill="#C3987B"/>
<path fill-rule="evenodd" clip-rule="evenodd" d="M292.016 140.826L264.332 138.677L264.923 128.704L276.604 123.302L292.016 140.826Z" fill="#50A9AA"/>
<path fill-rule="evenodd" clip-rule="evenodd" d="M261.499 123.302L255.05 121.49L248.43 122.341L254.793 124.386L261.499 123.302Z" fill="#3AA0BA"/>
<path fill-rule="evenodd" clip-rule="evenodd" d="M264.837 154.166L254.57 184.064L246.672 179.608L242.168 175.147L232.31 146.775L264.837 154.166Z" fill="#3AA0BA"/>
<path fill-rule="evenodd" clip-rule="evenodd" d="M283.684 145.772L270.433 153.742L256.722 159.069L232.31 146.775L283.684 145.772Z" fill="#318FA6"/>
<path fill-rule="evenodd" clip-rule="evenodd" d="M283.684 145.772L283.396 177.278L276.983 180.825L270.059 182.666L256.722 159.069L283.684 145.772Z" fill="#5EC0D9"/>
<path fill-rule="evenodd" clip-rule="evenodd" d="M283.396 177.278L288.34 187.217L270.023 187.45L270.059 182.666L283.396 177.278Z" fill="#165E60"/>
<path fill-rule="evenodd" clip-rule="evenodd" d="M254.57 184.069H233.8L242.168 175.152L254.57 184.069Z" fill="#165E60"/>
<path d="M254.57 184.064H233.8V185.234H254.57V184.064Z" fill="#1C7678"/>
<path d="M288.34 187.169H270.023V188.339H288.34V187.169Z" fill="#1C7678"/>
<path fill-rule="evenodd" clip-rule="evenodd" d="M229.517 129.161L216.115 119.493L230.265 101.683L234.916 108.641L229.517 129.161Z" fill="#50A9AA"/>
<path fill-rule="evenodd" clip-rule="evenodd" d="M230.265 101.683L234.916 92.3054L242.168 101.683L234.916 108.641L230.265 101.683Z" fill="#C3987B"/>
<path fill-rule="evenodd" clip-rule="evenodd" d="M234.916 92.3053L242.168 89.2332L246.672 95.4678L242.168 101.683L234.916 92.3053Z" fill="#E8CAB6"/>
<path fill-rule="evenodd" clip-rule="evenodd" d="M250.697 62.1551L255.616 63.0064L252.838 75.9605L247.955 75.0712L250.697 62.1551Z" fill="#E8CAB6"/>
<path fill-rule="evenodd" clip-rule="evenodd" d="M252.874 146.371L229.517 129.161L232.31 146.775L252.874 146.371Z" fill="#1C7678"/>
<path d="M246.672 67.1865C247.61 67.1865 248.369 66.4711 248.369 65.5886C248.369 64.7062 247.61 63.9908 246.672 63.9908C245.735 63.9908 244.976 64.7062 244.976 65.5886C244.976 66.4711 245.735 67.1865 246.672 67.1865Z" fill="black"/>
<path d="M258.151 69.6832C259.088 69.6832 259.848 68.9678 259.848 68.0853C259.848 67.2028 259.088 66.4874 258.151 66.4874C257.214 66.4874 256.454 67.2028 256.454 68.0853C256.454 68.9678 257.214 69.6832 258.151 69.6832Z" fill="black"/>
<path opacity="0.1" fill-rule="evenodd" clip-rule="evenodd" d="M0.575684 197.118L44.7076 191.763L84.3047 198.307L41.6625 205.117L0.575684 197.118Z" fill="black"/>
<path fill-rule="evenodd" clip-rule="evenodd" d="M18.6294 113.995L5.45398 142.267L13.6956 139.985L18.5638 136.808L19.19 126.788L18.6294 113.995Z" fill="#96637C"/>
<path fill-rule="evenodd" clip-rule="evenodd" d="M5.45398 142.262L19.19 155.407L18.5638 136.808L5.45398 142.262Z" fill="#734D60"/>
<path fill-rule="evenodd" clip-rule="evenodd" d="M74.8511 116.487L71.71 105.687L74.8511 104.651L77.1791 109.535V112.968L74.8511 116.487Z" fill="#DFBDA5"/>
<path fill-rule="evenodd" clip-rule="evenodd" d="M78.8103 104.651L81.6939 95.0683L84.2189 95.6057L82.8049 105.916H80.7344L78.8103 104.651Z" fill="#DFBDA5"/>
<path fill-rule="evenodd" clip-rule="evenodd" d="M71.0231 122.636L69.1142 127.706L64.3117 133.422L60.4484 131.824L58.4587 122.251L59.2112 111.851L71.0231 122.636Z" fill="#734D60"/>
<path fill-rule="evenodd" clip-rule="evenodd" d="M64.3118 133.422L74.8511 116.487L79.3911 116.777L84.4411 120.187L76.7651 138.919L64.3118 133.422Z" fill="#96637C"/>
<path fill-rule="evenodd" clip-rule="evenodd" d="M74.8511 116.487L84.441 120.187L87.4357 112.968L82.2695 110.258L77.1791 109.535L74.8511 116.487Z" fill="#C3987B"/>
<path fill-rule="evenodd" clip-rule="evenodd" d="M77.1791 109.535L78.8102 104.651L89.3748 107.999L87.4356 112.968L77.1791 109.535Z" fill="#E8CAB6"/>
<path fill-rule="evenodd" clip-rule="evenodd" d="M56.4842 168.684L50.5858 180.34L48.8385 186.87L47.3286 190.455L41.617 194.055L34.845 196.685L35.3449 193.137L36.4913 182.185L40.4303 168.684L47.6164 167.31L56.4842 168.684Z" fill="#785D88"/>
<path fill-rule="evenodd" clip-rule="evenodd" d="M47.6821 189.623L54.8783 197.793H34.9763L34.845 196.685L47.6821 189.623Z" fill="#594165"/>
<path fill-rule="evenodd" clip-rule="evenodd" d="M38.0315 180.697L48.8385 186.87L56.4842 168.684L47.8335 167.681L40.4302 168.684L38.3547 174.001L38.0315 180.697Z" fill="#594165"/>
<path fill-rule="evenodd" clip-rule="evenodd" d="M40.4303 168.684L38.0315 174.848V180.697L34.845 196.685L27.982 194.379L22.8361 190.455L18.4779 168.684L31.0524 167.681L40.4303 168.684Z" fill="#9075A0"/>
<path fill-rule="evenodd" clip-rule="evenodd" d="M22.8361 190.455L18.4779 197.793H34.9763L34.845 196.685L22.8361 190.455Z" fill="#594165"/>
<path fill-rule="evenodd" clip-rule="evenodd" d="M18.4779 168.684L38.0315 180.697L40.4303 168.684L30.0071 167.31L18.4779 168.684Z" fill="#785D88"/>
<path fill-rule="evenodd" clip-rule="evenodd" d="M49.1718 106.767L28.886 105.221L25.7701 110.258L18.6294 113.995L18.4779 168.684H46.1368L60.3222 167.31L59.2112 111.851L49.1718 106.767Z" fill="#B3889D"/>
<path fill-rule="evenodd" clip-rule="evenodd" d="M30.8909 109.15L32.9563 118.523L46.3136 126.788L49.8233 114.861L49.1719 106.767L46.4449 107.029L41.4605 110.258L30.8909 109.15Z" fill="#594165"/>
<path fill-rule="evenodd" clip-rule="evenodd" d="M28.886 105.221L25.7701 110.258L35.4207 118.023L41.4605 110.258L47.9699 115.194L49.1718 106.767L46.0762 103.595L28.886 105.221Z" fill="#9075A0"/>
<path fill-rule="evenodd" clip-rule="evenodd" d="M66.4782 95.6057L47.0357 100.908L41.4605 110.258L34.8298 105.659L28.886 105.221L29.4011 99.7763L27.3154 96.9087L26.361 91.8726L23.5582 92.2388L18.8011 85.2956L22.9825 82.1332L29.6586 86.9886L32.7644 84.6108L21.3716 66.3352L27.4467 60.2719L48.8487 58.4791L54.9743 54.5082L62.9887 78.4001L66.4782 95.6057Z" fill="#DFBDA5"/>
<path fill-rule="evenodd" clip-rule="evenodd" d="M57.272 66.8821L50.7221 73.3544L49.8233 84.3208L42.9199 73.9632L35.4207 70.7674L43.6925 68.8795L46.4448 69.4501L49.1718 67.7096L51.8129 65.6837L57.272 66.8821Z" fill="#C3987B"/>
<path fill-rule="evenodd" clip-rule="evenodd" d="M48.5962 64.2523L57.2721 66.8821L49.1719 67.7096L48.5962 64.2523Z" fill="#734D60"/>
<path fill-rule="evenodd" clip-rule="evenodd" d="M43.6925 68.8795L35.4207 70.7674L42.4452 65.5078L43.6925 68.8795Z" fill="#734D60"/>
<path fill-rule="evenodd" clip-rule="evenodd" d="M49.1719 67.7096L53.4997 83.4647L49.8233 84.3207L43.6926 68.8795L49.1719 67.7096Z" fill="#E8CAB6"/>
<path fill-rule="evenodd" clip-rule="evenodd" d="M53.4996 83.4648L52.3836 86.2087L49.8232 84.3208L53.4996 83.4648Z" fill="#8B6651"/>
<path fill-rule="evenodd" clip-rule="evenodd" d="M57.1558 87.8208L43.7834 89.3283L48.5759 94.9209L56.57 93.285L57.1558 87.8208Z" fill="#8B6651"/>
<path fill-rule="evenodd" clip-rule="evenodd" d="M22.2705 85.2053L27.1943 87.9017L23.2906 88.2346L22.2705 85.2053Z" fill="#8B6651"/>
<path fill-rule="evenodd" clip-rule="evenodd" d="M25.7701 91.9487L29.5728 91.3685L27.3154 96.9087L25.7701 91.9487Z" fill="#8B6651"/>
<path fill-rule="evenodd" clip-rule="evenodd" d="M66.4782 95.6057L42.4453 99.9998L36.9458 100.176L41.4605 110.258L47.4649 101.593L66.4782 95.6057Z" fill="#8B6651"/>
<path fill-rule="evenodd" clip-rule="evenodd" d="M27.4467 60.2719L35.4207 70.7674L42.4452 99.9998L38.3648 100.675L41.4605 110.258L28.886 105.221L27.3154 96.9087L25.7701 91.9487L29.5728 91.3685L29.6586 86.9886L32.7644 84.6061L21.3716 66.3352L27.4467 60.2719Z" fill="#C3987B"/>
<path fill-rule="evenodd" clip-rule="evenodd" d="M59.5597 51.2126L54.9743 54.5082L49.1365 59.2447L46.4448 50.9938L47.0963 42.7619L59.5597 51.2126Z" fill="#474747"/>
<path fill-rule="evenodd" clip-rule="evenodd" d="M47.0963 42.7619L16.7761 56.0775L22.2453 59.5776L28.0528 60.7665L49.1365 59.2447L47.0963 42.7619Z" fill="#858686"/>
<path fill-rule="evenodd" clip-rule="evenodd" d="M28.0527 60.7665L22.2351 66.3115L17.9123 66.3733L14.2965 64.7469L16.7761 56.0775L28.0527 60.7665Z" fill="#6F7173"/>
<path fill-rule="evenodd" clip-rule="evenodd" d="M22.2351 66.3115L33.6582 84.939L29.7394 87.5878L23.0936 82.623L19.2606 85.4098L21.8513 89.7516L9.17578 84.4824L14.2965 64.7469L22.2351 66.3115Z" fill="#474747"/>
<path fill-rule="evenodd" clip-rule="evenodd" d="M29.5728 91.3685L27.3154 96.9087L25.7701 91.9487L29.5728 91.3685Z" fill="#8B6651"/>
<path fill-rule="evenodd" clip-rule="evenodd" d="M46.3136 126.788L24.0986 120.149L25.7702 110.258L46.3136 126.788Z" fill="#D1A1B8"/>
<path fill-rule="evenodd" clip-rule="evenodd" d="M46.3136 126.788L46.1368 168.684H62.7311L59.2113 111.851L54.3734 110.809L49.1719 106.767L46.3136 126.788Z" fill="#96637C"/>
<path fill-rule="evenodd" clip-rule="evenodd" d="M49.1719 106.767L59.2113 111.851L46.3136 126.788L49.1719 106.767Z" fill="#B3889D"/>
<path d="M51.7055 131.829L49.0452 134.334L51.7055 136.84L54.3658 134.334L51.7055 131.829Z" fill="#734D60"/>
<path d="M51.7057 144.272L49.0449 146.777L51.7048 149.283L54.3656 146.778L51.7057 144.272Z" fill="#734D60"/>
<path d="M51.7055 156.72L49.0452 159.225L51.7055 161.73L54.3658 159.225L51.7055 156.72Z" fill="#734D60"/>
<path d="M28.595 122.257L25.9005 123.126L29.6484 133.429L32.3428 132.559L28.595 122.257Z" fill="#785D88"/>
<path d="M40.1223 131.824H25.0682V134.111H40.1223V131.824Z" fill="#96637C"/>
<path fill-rule="evenodd" clip-rule="evenodd" d="M46.566 90.3318L55.9085 88.8243L47.1922 91.9011L46.566 90.3318Z" fill="white"/>
<path fill-rule="evenodd" clip-rule="evenodd" d="M55.9086 88.8243L56.5802 91.8964L47.6367 93.3468L47.1923 91.9011L55.9086 88.8243Z" fill="#474747"/>
<path d="M42.9502 78.4476C43.8873 78.4476 44.647 77.7323 44.647 76.8498C44.647 75.9673 43.8873 75.2519 42.9502 75.2519C42.0131 75.2519 41.2534 75.9673 41.2534 76.8498C41.2534 77.7323 42.0131 78.4476 42.9502 78.4476Z" fill="black"/>
<path d="M54.6157 75.8416C55.5529 75.8416 56.3125 75.1262 56.3125 74.2437C56.3125 73.3612 55.5529 72.6459 54.6157 72.6459C53.6786 72.6459 52.9189 73.3612 52.9189 74.2437C52.9189 75.1262 53.6786 75.8416 54.6157 75.8416Z" fill="black"/>
<path d="M54.8783 197.793H34.845V199.724H54.8783V197.793Z" fill="#785D88"/>
<path d="M34.9763 197.793H18.4779V199.724H34.9763V197.793Z" fill="#9075A0"/>
<path fill-rule="evenodd" clip-rule="evenodd" d="M118.816 106.62L114.797 114.937L108.868 123.254L112.342 107.029L118.816 106.62Z" fill="#738D57"/>
<path opacity="0.1" fill-rule="evenodd" clip-rule="evenodd" d="M84.7794 194.811L120.276 193.166L161.888 199.258L127.775 201.502L84.7794 194.811Z" fill="black"/>
<path fill-rule="evenodd" clip-rule="evenodd" d="M110.484 195.392L111.236 189.78L110.923 187.283L106.378 186.213L97.3085 195.044L104.176 195.392H110.484Z" fill="#DFBDA5"/>
<path fill-rule="evenodd" clip-rule="evenodd" d="M136.249 138.534L123.331 140.489H114.14L108.868 123.254L121.548 128.624L136.249 138.534Z" fill="#738D57"/>
<path fill-rule="evenodd" clip-rule="evenodd" d="M118.816 106.62L108.868 123.254L115.377 127.401L120.882 129.779L136.249 138.534L145.051 118.941L118.816 106.62Z" fill="#5A753D"/>
<path fill-rule="evenodd" clip-rule="evenodd" d="M106.343 56.9858L108.868 56.6196L110.444 55.1264L118.104 52.3444L137.916 55.1264L120.978 110.229L117.812 103.6L113.287 97.3985L106.333 94.3169L98.0408 91.6823L104.116 76.8545L108.343 60.8426L108.009 58.5837L106.343 56.9858Z" fill="#DFBDA5"/>
<path fill-rule="evenodd" clip-rule="evenodd" d="M113.287 97.4033L98.0408 91.6871L108.343 60.8426L112.337 58.9308L116.438 57.0762L122.675 54.7935L127.356 61.4085L128.331 60.971L130.24 64.6993L121.19 100.062L113.287 97.4033Z" fill="#DFBDA5"/>
<path fill-rule="evenodd" clip-rule="evenodd" d="M130.179 64.7279L121.19 100.062L122.478 101.369L125.922 101.788L128.305 99.0012L130.012 94.9399L131.032 84.2922L130.179 64.7279Z" fill="#C3987B"/>
<path fill-rule="evenodd" clip-rule="evenodd" d="M125.922 101.788L120.978 110.229L113.287 97.4033L121.19 100.062L125.922 101.788Z" fill="#8B6651"/>
<path fill-rule="evenodd" clip-rule="evenodd" d="M108.318 60.8473L110.444 55.1264L125.296 48.0834L122.675 54.7935L116.438 57.0762L112.337 58.9308L108.318 60.8473Z" fill="#E8F078"/>
<path fill-rule="evenodd" clip-rule="evenodd" d="M125.296 48.0834L146.455 54.6841L152.061 68.6607L154.035 72.5222L148.091 70.5772L142.142 68.675L136.249 66.73L130.179 64.7279L127.356 61.4085L122.675 54.7935L125.296 48.0834Z" fill="#D9E354"/>
<path fill-rule="evenodd" clip-rule="evenodd" d="M130.179 64.7279L136.072 66.6729L142.142 68.675L148.091 70.5772L154.035 72.5222L155.762 99.8239L132.154 68.5894L130.179 64.7279Z" fill="#B8C745"/>
<path fill-rule="evenodd" clip-rule="evenodd" d="M116.18 68.7891L113.064 76.7166L107.499 67.2959L116.18 68.7891Z" fill="#C3987B"/>
<path fill-rule="evenodd" clip-rule="evenodd" d="M118.221 69.1505L125.614 74.3103L119.357 75.0665L113.63 81.3961L118.221 69.1505Z" fill="#C3987B"/>
<path fill-rule="evenodd" clip-rule="evenodd" d="M111.464 80.7969L112.014 82.9083L113.63 81.3961L111.464 80.7969Z" fill="#8B6651"/>
<path fill-rule="evenodd" clip-rule="evenodd" d="M118.221 69.1505L125.164 72.0324L125.614 74.3103L118.221 69.1505Z" fill="#738D57"/>
<path fill-rule="evenodd" clip-rule="evenodd" d="M116.18 68.7891L108.206 66.0642L107.499 67.2959L116.18 68.7891Z" fill="#738D57"/>
<path fill-rule="evenodd" clip-rule="evenodd" d="M118.221 69.1505L113.63 81.3961L111.464 80.7969L116.18 68.7891L118.221 69.1505Z" fill="#E8CAB6"/>
<path fill-rule="evenodd" clip-rule="evenodd" d="M132.154 68.5894L137.916 121.909L130.265 121.143L130.012 94.9447L130.24 64.6993L132.154 68.5894Z" fill="#E8F078"/>
<path fill-rule="evenodd" clip-rule="evenodd" d="M133.169 78.0149L152.066 116.026L163.539 110.386L155.762 99.8239L132.148 68.5894L133.169 78.0149Z" fill="#D9E354"/>
<path fill-rule="evenodd" clip-rule="evenodd" d="M130.012 94.9447L120.978 110.229L115.938 119.003L130.265 121.143L130.012 94.9447Z" fill="#D9E354"/>
<path fill-rule="evenodd" clip-rule="evenodd" d="M133.169 78.0149L152.066 116.026L137.916 121.909L136.295 106.914L133.552 95.463L133.169 78.0149Z" fill="#B8C745"/>
<path fill-rule="evenodd" clip-rule="evenodd" d="M104.409 84.1733L110.656 88.2536L118.816 88.4914L110.019 90.5315L104.409 84.1733Z" fill="#709D53"/>
<path fill-rule="evenodd" clip-rule="evenodd" d="M104.409 84.1733L106.969 85.0246L110.529 85.6095L112.822 86.3324L115.504 87.7733L118.816 88.4914L110.656 88.2536L104.409 84.1733Z" fill="#446125"/>
<path d="M110.441 55.1301L106.341 56.9889L108.315 60.8495L112.415 58.9907L110.441 55.1301Z" fill="#35785D"/>
<path d="M116.435 57.0778L112.335 58.9366L114.309 62.7972L118.409 60.9384L116.435 57.0778Z" fill="#54B08B"/>
<path d="M122.388 58.9818L118.289 60.8406L120.262 64.7012L124.362 62.8424L122.388 58.9818Z" fill="#35785D"/>
<path d="M128.328 60.974L124.229 62.8328L126.202 66.6933L130.302 64.8346L128.328 60.974Z" fill="#54B08B"/>
<path d="M134.277 62.8705L130.177 64.7293L132.151 68.5899L136.251 66.7311L134.277 62.8705Z" fill="#35785D"/>
<path d="M140.169 64.8146L136.07 66.6734L138.044 70.534L142.143 68.6752L140.169 64.8146Z" fill="#54B08B"/>
<path d="M146.118 66.7159L142.019 68.5747L143.993 72.4352L148.092 70.5765L146.118 66.7159Z" fill="#35785D"/>
<path d="M152.062 68.6652L147.962 70.524L149.936 74.3846L154.036 72.5258L152.062 68.6652Z" fill="#54B08B"/>
<path fill-rule="evenodd" clip-rule="evenodd" d="M130.154 76.0508L133.169 78.0101L133.906 84.8106L130.108 82.4138L130.154 76.0508Z" fill="#5A753D"/>
<path fill-rule="evenodd" clip-rule="evenodd" d="M130.108 82.4138L133.906 84.8106L134.441 89.7516L130.068 87.4547L130.108 82.4138Z" fill="#99C26D"/>
<path fill-rule="evenodd" clip-rule="evenodd" d="M130.068 87.4547L134.441 89.7516L135.032 95.249L130.027 92.6192L130.068 87.4547Z" fill="#5A753D"/>
<path fill-rule="evenodd" clip-rule="evenodd" d="M130.027 92.6192L135.032 95.249L135.683 101.279L130.043 98.264L130.027 92.6192Z" fill="#99C26D"/>
<path fill-rule="evenodd" clip-rule="evenodd" d="M130.043 98.264L135.683 101.279L136.295 106.914L130.093 103.666L130.043 98.264Z" fill="#5A753D"/>
<path fill-rule="evenodd" clip-rule="evenodd" d="M94.1118 195.392L98.4599 191.535L104.176 195.392H94.1118Z" fill="#C3987B"/>
<path fill-rule="evenodd" clip-rule="evenodd" d="M106.378 186.213L111.236 189.78L111.61 186.993L109.429 186.213H106.378Z" fill="#8B6651"/>
<path fill-rule="evenodd" clip-rule="evenodd" d="M141.233 199.767L140.037 191.321L134.835 190.783L132.835 193.252L128.442 199.424L132.472 198.697L141.233 199.767Z" fill="#DFBDA5"/>
<path fill-rule="evenodd" clip-rule="evenodd" d="M128.442 199.424L133.32 196.452L141.233 199.767L128.442 199.424Z" fill="#C3987B"/>
<path fill-rule="evenodd" clip-rule="evenodd" d="M134.769 190.536L132.835 193.251L140.036 191.321L136.865 190.536H134.769Z" fill="#8B6651"/>
<path fill-rule="evenodd" clip-rule="evenodd" d="M145.975 130.345L134.436 132.176L136.249 138.534L154.035 138.777L149.667 131.52L145.975 130.345Z" fill="#99C26D"/>
<path fill-rule="evenodd" clip-rule="evenodd" d="M152.066 116.026L154.035 138.777L137.916 121.913L152.066 116.026Z" fill="#738D57"/>
<path fill-rule="evenodd" clip-rule="evenodd" d="M134.441 132.176H125.083L128.987 139.176L136.249 138.534L134.441 132.176Z" fill="#DFBDA5"/>
<path fill-rule="evenodd" clip-rule="evenodd" d="M136.249 138.534L137.522 141.606L140.668 144.521L142.971 147.641L127.74 154.013L111.241 157.77L113.196 146.105L114.14 143.47V140.489L136.249 138.534Z" fill="#54B08B"/>
<path fill-rule="evenodd" clip-rule="evenodd" d="M111.241 157.77L142.971 147.641L140.986 175.095L124.23 168.028L111.241 157.77Z" fill="#3F8F6F"/>
<path fill-rule="evenodd" clip-rule="evenodd" d="M140.986 175.095L123.68 182.009L106.378 186.213L111.241 157.77L140.986 175.095Z" fill="#35785D"/>
<path fill-rule="evenodd" clip-rule="evenodd" d="M140.986 175.095L140.037 191.321L106.378 186.213L140.986 175.095Z" fill="#3F8F6F"/>
<path fill-rule="evenodd" clip-rule="evenodd" d="M128.588 133.179L132.81 138.838L128.987 139.176L126.053 133.821L128.588 133.179Z" fill="#8B6651"/>
<path opacity="0.1" fill-rule="evenodd" clip-rule="evenodd" d="M140.668 144.526L132.84 142.172L130.401 149.187L128.876 149.572L118.589 143.47L113.196 146.105L114.14 140.489L136.249 138.539L140.668 144.526Z" fill="black"/>
<path fill-rule="evenodd" clip-rule="evenodd" d="M118.584 128.547L118.226 131.629L115.377 135.277L104.177 131.02L108.868 123.254L118.584 128.547Z" fill="#99C26D"/>
<path fill-rule="evenodd" clip-rule="evenodd" d="M118.458 128.476L120.882 129.779L122.114 133.274L121.069 137.669L115.377 135.277L118.458 128.476Z" fill="#C3987B"/>
<path fill-rule="evenodd" clip-rule="evenodd" d="M119.604 137.055L123.887 138.605L124.402 133.179L121.16 130.754L119.604 137.055Z" fill="#8B6651"/>
<path d="M126.894 127.267L120.618 128.859L122.309 134.769L128.585 133.177L126.894 127.267Z" fill="#3F8F6F"/>
<path fill-rule="evenodd" clip-rule="evenodd" d="M126.906 142.324L128.876 149.572L130.401 149.187L128.225 141.972L126.906 142.324Z" fill="#738D57"/>
<path fill-rule="evenodd" clip-rule="evenodd" d="M123.755 128.062L120.978 119.754L130.265 121.143L126.896 127.268L123.755 128.062Z" fill="#B8C745"/>
<path fill-rule="evenodd" clip-rule="evenodd" d="M127.265 128.562L134.512 122.869L139.471 129.151L127.896 130.768L127.265 128.562Z" fill="#B8C745"/>
<path fill-rule="evenodd" clip-rule="evenodd" d="M128.25 131.995L138.491 131.629L132.81 138.838L127.124 133.55L128.588 133.179L128.25 131.995Z" fill="#B8C745"/>
<path fill-rule="evenodd" clip-rule="evenodd" d="M126.053 133.821L130.189 141.373L122.654 143.385L123.816 134.392L126.053 133.821Z" fill="#B8C745"/>
<path fill-rule="evenodd" clip-rule="evenodd" d="M122.311 134.772L118.589 143.47L114.14 140.489L121.826 133.089L122.311 134.772Z" fill="#B8C745"/>
<path fill-rule="evenodd" clip-rule="evenodd" d="M121.548 132.109L110.999 137.526L108.05 132.404L121.16 130.754L121.548 132.109Z" fill="#B8C745"/>
<path fill-rule="evenodd" clip-rule="evenodd" d="M120.882 129.779L110.07 127.52L114.14 121.49L122.755 128.314L120.619 128.861L120.882 129.779Z" fill="#B8C745"/>
<path d="M123.757 128.078L121.465 131.828L125.448 133.987L127.74 130.236L123.757 128.078Z" fill="#D9E354"/>
<path d="M109.55 74.1201C110.487 74.1201 111.246 73.4047 111.246 72.5222C111.246 71.6397 110.487 70.9243 109.55 70.9243C108.612 70.9243 107.853 71.6397 107.853 72.5222C107.853 73.4047 108.612 74.1201 109.55 74.1201Z" fill="black"/>
<path d="M120.963 78.0101C121.9 78.0101 122.659 77.2947 122.659 76.4123C122.659 75.5298 121.9 74.8144 120.963 74.8144C120.026 74.8144 119.266 75.5298 119.266 76.4123C119.266 77.2947 120.026 78.0101 120.963 78.0101Z" fill="black"/>
</g>
<defs>
<clipPath id="clip0">
<rect width="303" height="214" fill="white"/>
</clipPath>
</defs>
</svg>
