<svg width="40" height="40" viewBox="0 0 40 40" fill="none" xmlns="http://www.w3.org/2000/svg">
<g clip-path="url(#clip0)">
<path d="M35.89 11.855C37.5167 10.7 38.885 9.25832 40 7.59832V7.59665C38.5117 8.24832 36.9283 8.68165 35.275 8.89165C36.975 7.87665 38.2733 6.28165 38.8833 4.35998C37.2983 5.30498 35.5483 5.97165 33.6833 6.34498C32.1783 4.74165 30.0333 3.74998 27.6933 3.74998C23.1533 3.74998 19.4983 7.43498 19.4983 11.9517C19.4983 12.6017 19.5533 13.2267 19.6883 13.8217C12.8717 13.4883 6.83833 10.2217 2.785 5.24332C2.07833 6.47165 1.66167 7.87665 1.66167 9.38832C1.66167 12.2283 3.12333 14.745 5.305 16.2033C3.98667 16.1783 2.695 15.795 1.6 15.1933V15.2833C1.6 19.2683 4.44167 22.5783 8.17 23.3417C7.50167 23.525 6.775 23.6117 6.02 23.6117C5.495 23.6117 4.965 23.5817 4.46833 23.4717C5.53 26.7183 8.54667 29.1066 12.13 29.185C9.34 31.3666 5.79667 32.6817 1.96167 32.6817C1.29 32.6817 0.645 32.6516 0 32.57C3.63333 34.9116 7.93667 36.25 12.58 36.25C27.0517 36.25 36.4833 24.1767 35.89 11.855Z" fill="#3C9294"/>
</g>
<defs>
<clipPath id="clip0">
<rect width="40" height="40" fill="white"/>
</clipPath>
</defs>
</svg>
