<svg width="40" height="40" viewBox="0 0 40 40" fill="none" xmlns="http://www.w3.org/2000/svg">
<path d="M20 0C8.95599 0 0 8.95599 0 20C0 31.044 8.95599 40 20 40C31.044 40 40 31.044 40 20C40 8.95599 31.044 0 20 0ZM20.4239 31.6446C20.4236 31.6446 20.4242 31.6446 20.4239 31.6446H20.419C18.4155 31.6437 16.4468 31.1414 14.6985 30.188L8.35297 31.8521L10.0513 25.6509C9.0036 23.8364 8.45245 21.7776 8.45337 19.6686C8.45612 13.0707 13.826 7.70294 20.4239 7.70294C23.6258 7.70416 26.6315 8.9505 28.8913 11.2122C31.1514 13.4741 32.3953 16.4807 32.3941 19.678C32.3914 26.2762 27.0209 31.6446 20.4239 31.6446V31.6446Z" fill="#3C9294"/>
<path d="M20.4277 9.72412C14.9398 9.72412 10.4766 14.1855 10.4741 19.6695C10.4735 21.5488 10.9996 23.3789 11.9954 24.9625L12.2319 25.3387L11.2267 29.0091L14.9922 28.0215L15.3557 28.237C16.8831 29.1434 18.6342 29.6228 20.4195 29.6234H20.4235C25.9072 29.6234 30.3704 25.1617 30.3728 19.6774C30.3737 17.0197 29.3398 14.5209 27.4614 12.641C25.5831 10.7611 23.0849 9.72504 20.4277 9.72412V9.72412ZM26.2798 23.9456C26.0305 24.6439 24.8357 25.2814 24.261 25.3674C23.7456 25.4443 23.0937 25.4764 22.3772 25.249C21.9426 25.1111 21.3857 24.9271 20.6719 24.6191C17.6717 23.324 15.7122 20.304 15.5626 20.1044C15.4131 19.9048 14.3413 18.483 14.3413 17.0111C14.3413 15.5396 15.114 14.816 15.3881 14.5169C15.6624 14.2175 15.9865 14.1428 16.1858 14.1428C16.3851 14.1428 16.5847 14.1446 16.7589 14.1531C16.9426 14.1623 17.1892 14.0833 17.4318 14.6664C17.6812 15.2652 18.2793 16.7368 18.3541 16.8863C18.4288 17.0361 18.4786 17.2107 18.3791 17.4103C18.2793 17.6099 17.9479 18.0405 17.6314 18.4329C17.4987 18.5974 17.3256 18.7439 17.5002 19.0433C17.6744 19.3423 18.275 20.3217 19.164 21.1145C20.3066 22.1332 21.2703 22.4487 21.5694 22.5986C21.8682 22.7481 22.0427 22.7231 22.2173 22.5238C22.3915 22.3242 22.965 21.6507 23.1642 21.3513C23.3635 21.0519 23.5631 21.102 23.8372 21.2018C24.1115 21.3013 25.5818 22.0248 25.8809 22.1744C26.18 22.3242 26.3793 22.399 26.454 22.5238C26.5291 22.6486 26.5291 23.2471 26.2798 23.9456V23.9456Z" fill="#3C9294"/>
</svg>
