<svg width="375" height="200" viewBox="0 0 375 200" fill="none" xmlns="http://www.w3.org/2000/svg">
<g clip-path="url(#clip0)">
<path fill-rule="evenodd" clip-rule="evenodd" d="M313.515 166.23L315 136.95L309.775 129.485L299.6 137.075L301.62 166.175L304.575 173.88L313.515 166.23Z" fill="#8F8F8F"/>
<path opacity="0.15" fill-rule="evenodd" clip-rule="evenodd" d="M247.805 193.65L287.94 187.025L308.505 192.045L333.46 196.37L298.995 200.19L263.08 199.065L247.805 193.65Z" fill="#2B2B2B"/>
<path fill-rule="evenodd" clip-rule="evenodd" d="M313.41 106.765L323.39 119.355L328.895 107.595L326.375 93.525L315.155 79.325L306.7 92.395L313.41 106.765Z" fill="#738D57"/>
<path fill-rule="evenodd" clip-rule="evenodd" d="M312.585 184.04L316.815 193.8L315.315 194.59L300.04 194.72L298.75 194.04L301.775 184.365L310.195 176.355L312.585 184.04Z" fill="#4F5253"/>
<path fill-rule="evenodd" clip-rule="evenodd" d="M313.515 166.23L312.585 184.04L307.155 184.205L301.775 184.37L301.62 166.175L313.515 166.23Z" fill="#737373"/>
<path fill-rule="evenodd" clip-rule="evenodd" d="M297.595 197.57L316.965 197.715L316.815 193.8L297.45 193.655L297.595 197.57Z" fill="#4F5253"/>
<path fill-rule="evenodd" clip-rule="evenodd" d="M275.045 98.895L272.585 80.18L250.935 107.845L267.51 120.365L275.045 98.895Z" fill="#5A753D"/>
<path fill-rule="evenodd" clip-rule="evenodd" d="M295.525 87.27C295.525 87.27 295.525 87.3 295.5 87.315C295.475 87.33 295.5 87.25 295.525 87.27ZM277 122.23L281.265 127.035L299.39 124.5C299.39 124.5 297.61 108.33 296.46 97.3V97.25V97.03L296.435 96.76L296.405 96.495L296.38 96.25C295.835 91.005 295.465 87.175 295.555 87.29C295.455 87.165 293.115 84.085 289.62 84.67C287.67 85 284.93 89.17 282.97 89.605L283.82 90.34C280.045 91.21 276.82 91.92 276.82 91.92L276.975 115.64L276.91 116.205L276.98 116.31L277 122.23Z" fill="#C4C4C4"/>
<path fill-rule="evenodd" clip-rule="evenodd" d="M268.61 121.18L272.975 125.585L274.215 125.63L275.215 126.515L275.165 125.665L280.665 125.86L280.615 121.68L281.615 90.615V90.355H281.58H281.54L281.49 90.33L281.435 90.3L281.37 90.27L281.3 90.23L281.22 90.185L281.135 90.14L281.04 90.09L280.94 90.04L280.835 89.98L280.72 89.925L280.605 89.865L280.48 89.8L280.35 89.735L280.22 89.665L280.08 89.59L279.94 89.52L279.795 89.445L279.645 89.365L279.495 89.285L279.34 89.205L279.18 89.125L279 89L278.84 88.92L278.675 88.835L278.51 88.75L278.34 88.665L278.175 88.58L278.005 88.495L277.835 88.41L277.67 88.325L277.5 88.245L277.33 88.16L277.165 88.075L277 87.99L276.84 87.91L276.68 87.83L276.515 87.75L276.355 87.67L276.2 87.595L276.045 87.52L275.895 87.45L275.75 87.38L275.61 87.31L275.47 87.245L275.335 87.185L275.205 87.125L275.08 87.065L274.96 87.01L274.84 86.96L274.73 86.915L274.625 86.87L274.525 86.83L274.435 86.795L274.35 86.765L274.27 86.735L274.2 86.71H274.14H274.08H274.035C274.021 86.705 274.005 86.705 273.99 86.71H273.94H273.89L273.83 86.745C273.795 86.78 273.75 86.815 273.71 86.86L273.64 86.935L273.575 87.02L273.5 87.115C273.4 87.25 273.295 87.41 273.185 87.615L273.015 87.905L272.835 88.22L272.745 88.385L272.65 88.56L272.46 88.93L272.27 89.315L272.17 89.515L271.975 89.92L271.775 90.34L271.68 90.555L271.385 91.2C271.22 91.56 271.06 91.92 270.91 92.27L270.815 92.48L270.725 92.685L270.64 92.89L270.475 93.285L270.085 94.2C269.685 95.155 269.425 95.81 269.425 95.81L268.61 121.18Z" fill="#CECECD"/>
<path fill-rule="evenodd" clip-rule="evenodd" d="M269.655 123.36L272.13 124L291.855 124.09L293.045 126.085L291.805 128.4L271.98 127.86L269.655 123.36Z" fill="#2B2B2B"/>
<path fill-rule="evenodd" clip-rule="evenodd" d="M295.275 110.06L291.855 124.09L291.805 128.4L304.235 136.665L315 136.95L315.15 79.325L295.275 110.06Z" fill="#446125"/>
<path fill-rule="evenodd" clip-rule="evenodd" d="M272.585 80.18L261.46 101.87L265.14 124.405L271.98 127.86L272.13 124L272.585 80.18Z" fill="#446125"/>
<path fill-rule="evenodd" clip-rule="evenodd" d="M281.35 88.765L279.465 91.765L275.25 116.19L280.655 121.685L287.89 115.915L283.975 91.81L281.35 88.765Z" fill="#5A753D"/>
<path fill-rule="evenodd" clip-rule="evenodd" d="M273.43 92.38L274.965 94.2L275.41 124.07L266.645 98.92L273.43 92.38Z" fill="#709D53"/>
<path fill-rule="evenodd" clip-rule="evenodd" d="M276.9 83.755L275.77 78.65L272.585 80.18L266.645 98.92L274.965 94.2L276.9 83.755Z" fill="#99C26D"/>
<path fill-rule="evenodd" clip-rule="evenodd" d="M292.25 89.675L292.18 95.94L296.32 102.845L304.745 101.75L315.155 79.325L312.995 78.145L292.25 89.675Z" fill="#99C26D"/>
<path fill-rule="evenodd" clip-rule="evenodd" d="M275.255 86.545L279.465 91.765L283.975 91.81L291.76 85.955L279.565 80.915L275.255 86.545Z" fill="#738D57"/>
<path fill-rule="evenodd" clip-rule="evenodd" d="M283.75 83.24L281.81 84.085L274.965 94.2L275.77 78.65L279.97 76.625L283.75 83.24Z" fill="#ECECEB"/>
<path fill-rule="evenodd" clip-rule="evenodd" d="M275.74 67.925L281.81 84.085L287.225 84.205L289.005 84.61L299.285 78.62L303.755 64.22L275.74 67.925Z" fill="#835940"/>
<path fill-rule="evenodd" clip-rule="evenodd" d="M289.135 72.45L296.625 72.455L291.87 85.69L306.555 74.01L309.585 54.725L306.28 14.61L292.265 19.28L289.135 72.45Z" fill="#A77E62"/>
<path fill-rule="evenodd" clip-rule="evenodd" d="M306.625 45.375L301.44 47.13L309.585 54.725L310.605 48.26L306.625 45.375Z" fill="#835940"/>
<path fill-rule="evenodd" clip-rule="evenodd" d="M307.93 28.63L312.945 33.405L310.605 48.26L301.44 47.13L302.795 32.365L307.93 28.63Z" fill="#C09C84"/>
<path fill-rule="evenodd" clip-rule="evenodd" d="M301.585 11.8L312.1 13.715L312.945 33.405L302.795 32.365L306.595 27.685L300.625 27.91L299.16 23.21L301.585 11.8Z" fill="#4F5253"/>
<path fill-rule="evenodd" clip-rule="evenodd" d="M312.5 23L312.74 28.66L302.795 32.365L300.625 27.91L312.5 23Z" fill="#9DA1A2"/>
<path fill-rule="evenodd" clip-rule="evenodd" d="M302.115 3.32501L312.1 13.715L299.16 23.21L290.3 25.255L284.79 19.885L281.645 10.48L288.77 5.85501L302.115 3.32501Z" fill="#6F7173"/>
<path fill-rule="evenodd" clip-rule="evenodd" d="M259.75 14L260.67 10.345L269.95 3.015L291.995 0.690002L293.15 5.13L286.625 10.065L259.75 14Z" fill="#858686"/>
<path fill-rule="evenodd" clip-rule="evenodd" d="M260 11.74L258.935 10L269.935 3L261.405 12.175L260 11.74Z" fill="#6F7173"/>
<path fill-rule="evenodd" clip-rule="evenodd" d="M291.995 0.690002L302.115 3.325L286.625 10.065L291.995 0.690002Z" fill="#858686"/>
<path fill-rule="evenodd" clip-rule="evenodd" d="M255.905 26.465L256.575 53.04L270.405 73.04L289.135 72.45L298.275 51.145L299.16 23.21L290.3 22.305L286.625 10.065L261.405 12.175L255.905 26.465Z" fill="#C09C84"/>
<path fill-rule="evenodd" clip-rule="evenodd" d="M255.905 26.465L261.405 12.175L258.935 10L255.905 26.465Z" fill="#858686"/>
<path fill-rule="evenodd" clip-rule="evenodd" d="M304.99 35.155L310.14 35.805L304.37 42.44L304.99 35.155Z" fill="#835940"/>
<path fill-rule="evenodd" clip-rule="evenodd" d="M306.55 74.01L287.225 84.205L292.18 95.94L312.995 78.145L306.55 74.01Z" fill="#ECECEB"/>
<path fill-rule="evenodd" clip-rule="evenodd" d="M292.18 95.94L291.855 124.09L304.745 101.75L292.18 95.94Z" fill="#709D53"/>
<path fill-rule="evenodd" clip-rule="evenodd" d="M299.865 91.08L306.79 93.92L304.74 98.11L297.815 95.27L299.865 91.08Z" fill="#72C9A6"/>
<path fill-rule="evenodd" clip-rule="evenodd" d="M303.445 92.545L299.865 91.08L298.695 93.475L302.275 94.94L303.445 92.545Z" fill="#3F8F6F"/>
<path fill-rule="evenodd" clip-rule="evenodd" d="M303.445 92.545L306.79 93.92L306.495 94.515L303.15 93.145L303.445 92.545Z" fill="#ECECEB"/>
<path fill-rule="evenodd" clip-rule="evenodd" d="M302.565 94.345L305.91 95.715L306.205 95.115L302.86 93.745L302.565 94.345Z" fill="#ECECEB"/>
<path fill-rule="evenodd" clip-rule="evenodd" d="M298.405 94.075L305.325 96.91L305.62 96.315L298.695 93.475L298.405 94.075Z" fill="#ECECEB"/>
<path fill-rule="evenodd" clip-rule="evenodd" d="M297.815 95.27L304.74 98.11L305.035 97.51L298.11 94.67L297.815 95.27Z" fill="#ECECEB"/>
<path fill-rule="evenodd" clip-rule="evenodd" d="M261.46 101.87L250.935 107.845L259.015 124.205L269.59 107.45L261.46 101.87Z" fill="#738D57"/>
<path fill-rule="evenodd" clip-rule="evenodd" d="M339.895 110.955L323.39 119.355L326.375 93.525L331.185 91.635L335.77 92.685L339.895 110.955Z" fill="#446125"/>
<path fill-rule="evenodd" clip-rule="evenodd" d="M326.83 88.59L326.375 93.525L335.77 92.685L334.85 88.59L330.5 87.335L326.83 88.59Z" fill="#DDDDDC"/>
<path fill-rule="evenodd" clip-rule="evenodd" d="M326.145 73.79L326.83 88.59L331.3 85.865L332.075 80.415L328.895 73.58L326.145 73.79Z" fill="#C09C84"/>
<path fill-rule="evenodd" clip-rule="evenodd" d="M339.665 81.77L334.85 88.59H326.83L332.075 80.415L340.24 78.725L339.665 81.77Z" fill="#A77E62"/>
<path fill-rule="evenodd" clip-rule="evenodd" d="M347.575 73.895L340.24 78.725L334.85 88.59L345.285 82.505L347.575 73.895Z" fill="#C09C84"/>
<path fill-rule="evenodd" clip-rule="evenodd" d="M294.53 143.08L272.13 184.865L273.77 166.85L281.69 139.075L285.625 134.84L294.53 143.08Z" fill="#474747"/>
<path fill-rule="evenodd" clip-rule="evenodd" d="M305.895 131.595L302.58 197.61L298.995 200.19L297.18 190.62L299.815 132.35L301.9 129.58L304.28 129.565L305.895 131.595Z" fill="#3F8F6F"/>
<path fill-rule="evenodd" clip-rule="evenodd" d="M295.885 127.89L300.795 154.21L298.995 200.19L263.08 199.065L253.17 153.675L258.755 152.46L295.885 127.89Z" fill="#54B08B"/>
<path fill-rule="evenodd" clip-rule="evenodd" d="M304.495 157.335L309.735 154.45L303.815 148.565L250.185 148.195L247.455 149.975L253.17 153.675L300.795 154.21L304.495 157.335Z" fill="#35785D"/>
<path fill-rule="evenodd" clip-rule="evenodd" d="M309.785 122.15L300.965 113.44L298.64 119.115L303.72 150.695L309.735 154.45L309.785 122.15Z" fill="#3F8F6F"/>
<path fill-rule="evenodd" clip-rule="evenodd" d="M255.41 112.245L247.455 149.975L303.72 150.695L300.965 113.44L255.41 112.245Z" fill="#72C9A6"/>
<path fill-rule="evenodd" clip-rule="evenodd" d="M261.685 112.41L265.155 116.975L273.515 117.885L275.87 112.62L269.215 110.24L261.685 112.41Z" fill="#C09C84"/>
<path fill-rule="evenodd" clip-rule="evenodd" d="M262.84 107.295L274.11 107.555L275.87 112.62L261.685 112.41L262.84 107.295Z" fill="#A77E62"/>
<path fill-rule="evenodd" clip-rule="evenodd" d="M271.19 138.41L268.92 138.84L267.43 140.88L268.605 140.72L269.135 139.815L271.49 139.32L271.19 138.41Z" fill="#54B08B"/>
<path fill-rule="evenodd" clip-rule="evenodd" d="M273.43 136.325C273.265 136.325 272.765 137.115 272.765 137.115L270.46 138.405L270.895 139.77C270.895 139.77 275.2 138.77 275.435 138.77C275.67 138.77 273.435 136.3 273.435 136.3" fill="#54B08B"/>
<path fill-rule="evenodd" clip-rule="evenodd" d="M274.515 139.82L274.155 140.01L272.215 142.645L275.94 145.33L279.705 142.44L277.69 139.965L274.515 139.82Z" fill="#54B08B"/>
<path fill-rule="evenodd" clip-rule="evenodd" d="M274 138.79L274.16 140.01L275.87 141.115L277.695 139.965L278.105 138.575C278.105 138.575 274.03 138.495 274.105 138.43C274.18 138.365 274.01 138.79 274.01 138.79" fill="#54B08B"/>
<path fill-rule="evenodd" clip-rule="evenodd" d="M280.85 138.635L283.075 139.23L284.39 141.37L283.225 141.125L282.775 140.185L280.47 139.525L280.85 138.635Z" fill="#54B08B"/>
<path fill-rule="evenodd" clip-rule="evenodd" d="M278.79 136.395C278.955 136.395 279.39 137.23 279.39 137.23L281.575 138.685L281.025 140.02C281.025 140.02 276.815 138.73 276.585 138.72C276.355 138.71 278.79 136.395 278.79 136.395" fill="#54B08B"/>
<path fill-rule="evenodd" clip-rule="evenodd" d="M279.715 132.59L280.945 132.61L281.99 130.805L281.07 129.355L283.92 126.27L288.34 124.24L285.785 129.15L285.11 132.92L279.39 137.23L279.205 135.24L279.715 132.59Z" fill="#54B08B"/>
<path fill-rule="evenodd" clip-rule="evenodd" d="M272.805 132.34L271.58 132.275L270.685 130.4L271.73 129.02L269.155 125.74L264.92 123.4L267.045 128.475L267.4 132.285L272.765 137.115L273.09 135.025L272.805 132.34Z" fill="#54B08B"/>
<path fill-rule="evenodd" clip-rule="evenodd" d="M275.12 130.235L274.16 130.74L273.19 132.055L278.73 132.65L279.245 131.72L278.655 130.865L277.535 129.86L275.12 130.235Z" fill="#54B08B"/>
<path fill-rule="evenodd" clip-rule="evenodd" d="M275.135 127.715L275.035 127.26L276.155 126.81L278.485 127.955L278.225 128.29L278.655 130.865L277.42 130.425L276.49 130.735L275.735 130.43L274.16 130.74L275.74 129.11L275.125 128.145L275.135 127.715Z" fill="#54B08B"/>
<path fill-rule="evenodd" clip-rule="evenodd" d="M272.885 133.105L272.28 133.855L272.765 137.115L275.965 140.005L279.39 137.23L280.175 134.125L278.88 133.075L272.885 133.105Z" fill="#54B08B"/>
<path fill-rule="evenodd" clip-rule="evenodd" d="M277.57 138.71L278.51 137.945L278.69 133.72L277.785 133.69L277.57 138.71ZM275.5 139.58L275.97 140.005L276.405 139.655L276.66 133.655L275.755 133.62L275.5 139.58ZM273.545 137.81L274.415 138.6L274.63 133.575L273.725 133.545L273.545 137.81Z" fill="#72C9A6"/>
<path fill-rule="evenodd" clip-rule="evenodd" d="M272.77 131.485L272.28 133.855L280.175 134.14V134.125L279.76 131.605L277.84 132.04L276.325 131.17L274.46 131.96L272.77 131.485Z" fill="#54B08B"/>
<path fill-rule="evenodd" clip-rule="evenodd" d="M275.035 127.26L274.205 127.49L274.19 128.4L275.84 128.205L275.035 127.26Z" fill="#8CE0DC"/>
<path fill-rule="evenodd" clip-rule="evenodd" d="M273.205 120.755C273.343 120.754 273.481 120.78 273.609 120.832C273.737 120.884 273.854 120.962 273.952 121.059C274.05 121.157 274.128 121.273 274.181 121.401C274.234 121.529 274.261 121.667 274.26 121.805C274.234 122.083 274.101 122.34 273.887 122.521C273.674 122.701 273.399 122.791 273.12 122.77C272.841 122.771 272.573 122.662 272.374 122.466C272.176 122.27 272.063 122.004 272.06 121.725C272.085 121.445 272.22 121.187 272.434 121.006C272.648 120.824 272.925 120.734 273.205 120.755V120.755ZM280.25 121.01C280.112 120.998 279.973 121.014 279.84 121.056C279.708 121.099 279.586 121.166 279.48 121.256C279.374 121.346 279.287 121.455 279.223 121.579C279.16 121.702 279.121 121.837 279.11 121.975C279.11 122.113 279.137 122.25 279.19 122.377C279.244 122.505 279.321 122.62 279.42 122.717C279.518 122.815 279.634 122.891 279.762 122.943C279.89 122.995 280.027 123.021 280.165 123.02C280.444 123.042 280.72 122.953 280.934 122.772C281.147 122.592 281.281 122.334 281.305 122.055C281.306 121.916 281.28 121.778 281.227 121.65C281.175 121.521 281.097 121.404 280.999 121.306C280.901 121.208 280.784 121.13 280.655 121.078C280.527 121.025 280.389 120.999 280.25 121V121.01ZM282.835 122.595C282.606 122.578 282.38 122.652 282.205 122.801C282.03 122.95 281.92 123.161 281.9 123.39C281.9 123.503 281.922 123.615 281.966 123.719C282.01 123.823 282.074 123.917 282.154 123.996C282.235 124.076 282.33 124.138 282.435 124.18C282.54 124.221 282.652 124.242 282.765 124.24C282.993 124.258 283.219 124.185 283.393 124.037C283.567 123.889 283.676 123.678 283.695 123.45C283.695 123.337 283.673 123.226 283.629 123.122C283.586 123.018 283.523 122.923 283.443 122.844C283.363 122.764 283.268 122.701 283.164 122.659C283.059 122.616 282.948 122.594 282.835 122.595V122.595ZM270.5 122.155C270.613 122.154 270.724 122.176 270.829 122.219C270.933 122.261 271.028 122.324 271.108 122.404C271.188 122.483 271.251 122.578 271.294 122.682C271.338 122.786 271.36 122.897 271.36 123.01C271.369 123.191 271.323 123.371 271.228 123.526C271.132 123.68 270.993 123.803 270.827 123.876C270.661 123.95 270.477 123.972 270.298 123.939C270.12 123.906 269.955 123.82 269.826 123.692C269.698 123.564 269.611 123.4 269.577 123.222C269.543 123.044 269.564 122.859 269.637 122.693C269.71 122.527 269.831 122.386 269.985 122.29C270.139 122.194 270.319 122.147 270.5 122.155V122.155ZM276.785 119.69C276.948 119.689 277.11 119.72 277.261 119.781C277.412 119.843 277.549 119.933 277.665 120.048C277.78 120.163 277.872 120.3 277.935 120.45C277.998 120.601 278.03 120.762 278.03 120.925C278.002 121.256 277.844 121.561 277.591 121.776C277.338 121.991 277.011 122.096 276.68 122.07C276.517 122.071 276.355 122.039 276.204 121.977C276.053 121.915 275.916 121.824 275.8 121.709C275.684 121.593 275.592 121.456 275.53 121.306C275.467 121.155 275.435 120.993 275.435 120.83C275.464 120.501 275.622 120.197 275.874 119.984C276.125 119.771 276.451 119.665 276.78 119.69H276.785Z" fill="#54B08B"/>
<path fill-rule="evenodd" clip-rule="evenodd" d="M265.24 135.505L265.59 138.605L268.185 139.43L267.46 137.115L265.24 135.505Z" fill="#54B08B"/>
<path fill-rule="evenodd" clip-rule="evenodd" d="M286.68 135.505L286.325 138.605L283.735 139.43L284.46 137.115L286.68 135.505Z" fill="#54B08B"/>
<path fill-rule="evenodd" clip-rule="evenodd" d="M262.04 30.74L258.605 33.77L265.655 37.835L269.295 46.76L272.715 42.845L277.445 45.98L283.84 36.215L291.225 31.05L285.73 28.815L277.845 31.535L274.645 33.725L273.425 35.615L271.365 33.81L269.31 31.92L262.04 30.74Z" fill="#A77E62"/>
<path fill-rule="evenodd" clip-rule="evenodd" d="M271.02 44.73L269.295 46.76L273.79 49.545L277.445 45.98L271.02 44.73Z" fill="#835940"/>
<path fill-rule="evenodd" clip-rule="evenodd" d="M264.3 53.585L270.345 60.955L279.71 60.355L287.625 50.98L264.3 53.585Z" fill="#835940"/>
<path fill-rule="evenodd" clip-rule="evenodd" d="M277.365 29.075L277.845 31.535L286.475 29.955L291.225 31.05V30.15L286.145 27.69L277.365 29.075Z" fill="#2B2B2B"/>
<path fill-rule="evenodd" clip-rule="evenodd" d="M269.435 29.565L261.465 29.685L258.3 33.18L258.605 33.77L262.025 32.15L269.305 32.065L269.435 29.565Z" fill="#2B2B2B"/>
<path fill-rule="evenodd" clip-rule="evenodd" d="M271.365 33.81L271.235 39.92L269.295 46.76L277.445 45.98L275.26 40.065L274.645 33.725L271.365 33.81Z" fill="#C9AD9B"/>
<path fill-rule="evenodd" clip-rule="evenodd" d="M267.075 54.58L284.22 52.51L279.42 58.355L270.66 58.88L267.075 54.58Z" fill="white"/>
<path fill-rule="evenodd" clip-rule="evenodd" d="M282.77 44.285L289.25 48.42L288.5 58.435L291.23 47.375L282.77 44.285Z" fill="#A77E62"/>
<path fill-rule="evenodd" clip-rule="evenodd" d="M266.865 45.575L262.55 51.405L264.12 60.26L260.64 50.72L266.865 45.575Z" fill="#A77E62"/>
<path fill-rule="evenodd" clip-rule="evenodd" d="M279.9 43.125C280.102 43.1409 280.29 43.2324 280.428 43.3812C280.565 43.5299 280.642 43.725 280.642 43.9275C280.642 44.13 280.565 44.3251 280.428 44.4739C280.29 44.6226 280.102 44.7141 279.9 44.73C279.698 44.7141 279.51 44.6226 279.372 44.4739C279.235 44.3251 279.158 44.13 279.158 43.9275C279.158 43.725 279.235 43.5299 279.372 43.3812C279.51 43.2324 279.698 43.1409 279.9 43.125Z" fill="#835940"/>
<path fill-rule="evenodd" clip-rule="evenodd" d="M265.045 34.08C265.448 34.081 265.843 34.2016 266.178 34.4266C266.512 34.6516 266.773 34.9708 266.927 35.3439C267.08 35.7171 267.12 36.1274 267.04 36.5229C266.96 36.9184 266.765 37.2814 266.479 37.566C266.193 37.8506 265.829 38.044 265.433 38.1218C265.037 38.1995 264.627 38.1581 264.255 38.0028C263.882 37.8475 263.564 37.5852 263.341 37.2492C263.118 36.9132 262.999 36.5185 263 36.115C263 35.5753 263.214 35.0577 263.596 34.676C263.978 34.2944 264.495 34.08 265.035 34.08" fill="#2B2B2B"/>
<path fill-rule="evenodd" clip-rule="evenodd" d="M283.915 32.765C284.319 32.764 284.714 32.8829 285.05 33.1067C285.386 33.3305 285.649 33.6491 285.804 34.022C285.959 34.395 285.999 34.8056 285.921 35.2018C285.842 35.5979 285.648 35.9619 285.362 36.2475C285.077 36.5331 284.713 36.7275 284.317 36.806C283.92 36.8846 283.51 36.8438 283.137 36.6888C282.764 36.5337 282.445 36.2715 282.222 35.9352C281.998 35.599 281.879 35.2039 281.88 34.8C281.881 34.2607 282.096 33.7439 282.477 33.3625C282.859 32.9812 283.376 32.7663 283.915 32.765" fill="#2B2B2B"/>
<path fill-rule="evenodd" clip-rule="evenodd" d="M288.87 34L294.765 33.825L294.245 35.82L288.87 34Z" fill="#A77E62"/>
<path fill-rule="evenodd" clip-rule="evenodd" d="M262.05 37.24L257.305 37.1L257.725 38.705L262.05 37.24Z" fill="#A77E62"/>
</g>
<path fill-rule="evenodd" clip-rule="evenodd" d="M103.78 1.095L79.175 0L84.095 2.46L99.265 6.97L110.885 4.375L103.78 1.095Z" fill="#CECDCC"/>
<path opacity="0.1" fill-rule="evenodd" clip-rule="evenodd" d="M18.7951 189.125L83.2251 200L157.205 184.37L113.875 182.71L48.0251 183.84L18.7951 189.125Z" fill="#2B2B2B"/>
<path fill-rule="evenodd" clip-rule="evenodd" d="M113.12 68.965L119.815 68.78L116.38 80.105L110.815 75.31L113.12 68.965Z" fill="#474748"/>
<path fill-rule="evenodd" clip-rule="evenodd" d="M125.475 101.995L131.84 101.72L141.145 110.435L131.46 114.68L119.35 118.775L119.755 111.65L125.475 101.995Z" fill="#795D88"/>
<path fill-rule="evenodd" clip-rule="evenodd" d="M110.815 80.79L109.375 83.965L113.435 118.46L116.87 120.88L123.565 101.27L110.815 80.79Z" fill="#594265"/>
<path fill-rule="evenodd" clip-rule="evenodd" d="M46.8851 186.25L53.1301 187.985L69.6201 186.89L64.0801 174.8L56.3051 174.34L51.7001 176.06L46.8851 186.25Z" fill="#4F5353"/>
<path fill-rule="evenodd" clip-rule="evenodd" d="M68.5951 188.735L46.8851 189.05V186.25L68.5601 185.94L69.6201 186.89L68.5951 188.735Z" fill="#2B2B2B"/>
<path fill-rule="evenodd" clip-rule="evenodd" d="M51.7 176.06L64.125 175.48L69.105 143.815L56.305 140.375L51.7 176.06Z" fill="#6F7273"/>
<path fill-rule="evenodd" clip-rule="evenodd" d="M75.575 191.245L64.98 188.79L60.735 143.615L62.075 142.56L79.71 131.74L81.28 188.095L75.575 191.245Z" fill="#95637C"/>
<path fill-rule="evenodd" clip-rule="evenodd" d="M112.065 189.32L75.5751 191.245L72.5801 139L79.0901 136.79L124.32 135.24L126.34 137.255L112.065 189.32Z" fill="#D1A0B8"/>
<path fill-rule="evenodd" clip-rule="evenodd" d="M60.735 143.615L72.58 139L126.34 137.255L135.405 133.065L132.52 129.605L72.745 121.05L56.065 142.26L60.735 143.615Z" fill="#734D61"/>
<path fill-rule="evenodd" clip-rule="evenodd" d="M116.87 120.88L119.505 118.985L131.93 83.615L130.715 81.655L128.12 83.1L115.195 118.555L116.87 120.88Z" fill="#4F5353"/>
<path fill-rule="evenodd" clip-rule="evenodd" d="M131.58 73.295L127.01 75.195L125.67 79.06L128.12 83.1L138.79 84.54L141.32 77.97L131.58 73.295Z" fill="#9B9FA0"/>
<path fill-rule="evenodd" clip-rule="evenodd" d="M128.405 67.815L124.655 68.965L119.18 74.735L121.195 82.81L123.505 86.56L128.12 83.1L126.965 77.04L131.58 73.295L128.405 67.815Z" fill="#6F7273"/>
<path fill-rule="evenodd" clip-rule="evenodd" d="M117.45 84.25L123.505 86.56L121.485 75.31L118.6 73.58L114.855 74.16L117.45 84.25Z" fill="#4F5353"/>
<path fill-rule="evenodd" clip-rule="evenodd" d="M121.775 66.66L114.855 74.16L121.485 75.31L128.405 67.815L121.775 66.66Z" fill="#9B9FA0"/>
<path fill-rule="evenodd" clip-rule="evenodd" d="M52.565 76.67L42.42 94.25L36.5851 111.48L48.995 110.76L54.98 107.625L57.175 90.31L52.565 76.67Z" fill="#594265"/>
<path fill-rule="evenodd" clip-rule="evenodd" d="M33.2299 110.26L44.985 121.89L51.285 127.365L55.585 115.365L42.42 94.25L33.2299 110.26Z" fill="#795D88"/>
<path fill-rule="evenodd" clip-rule="evenodd" d="M52.56 76.755L56.53 127.38L75.345 119.15L94.665 119.435V104.73L92.81 101.01L67.555 89.73L60.635 74.445L52.56 76.755Z" fill="#795D88"/>
<path fill-rule="evenodd" clip-rule="evenodd" d="M103.605 76.755L110.815 80.79L115.195 118.555L112.835 120.59L94.6651 119.435L92.5551 117.355L92.3551 102.42L102.45 89.73L103.605 76.755Z" fill="#8F759F"/>
<path fill-rule="evenodd" clip-rule="evenodd" d="M88.61 110.785L92.42 107.215L95.53 111.075L92.52 114.425L88.61 110.785Z" fill="#594265"/>
<path fill-rule="evenodd" clip-rule="evenodd" d="M64.67 91.75L60.635 74.445L82.55 84.25L92.355 102.42L64.67 91.75Z" fill="#8F759F"/>
<path fill-rule="evenodd" clip-rule="evenodd" d="M105.965 92.75L92.3551 102.42L95.8201 83.1L103.605 76.755L105.965 92.75Z" fill="#795D88"/>
<path fill-rule="evenodd" clip-rule="evenodd" d="M80.8201 87.715L81.1101 82.52L84.8601 80.5L92.6451 80.79L95.5301 81.37L97.8401 85.12L95.2401 93.48L86.0101 94.635L80.8201 87.715Z" fill="#C3C3C3"/>
<path fill-rule="evenodd" clip-rule="evenodd" d="M92.355 102.42L86.01 94.635L87.165 84.83L89.76 83.675L91.495 84.83L95.24 93.48L92.355 102.42Z" fill="#4F5353"/>
<path fill-rule="evenodd" clip-rule="evenodd" d="M68.5151 61.775L71.7951 71.345L87.6501 77.355L98.4551 71.6L101.52 63.285L105.83 55.53L81.7101 46.82L68.5151 61.775Z" fill="#C18F7C"/>
<path fill-rule="evenodd" clip-rule="evenodd" d="M83.1301 80.215L87.1651 84.83H91.4951L94.0901 79.925L87.4551 77.04L83.1301 80.215Z" fill="#474748"/>
<path fill-rule="evenodd" clip-rule="evenodd" d="M61.6899 46.205L67.1599 68.64L77.3199 74.565L73.6099 64.67L84.6599 64.28L76.9899 30.34L75.2149 19.405L63.9849 20.025L61.6899 46.205Z" fill="#F4CAB2"/>
<path fill-rule="evenodd" clip-rule="evenodd" d="M63.9051 29.44L70.3201 27.645L70.2351 22.36L75.2151 19.405L73.4951 9.84L71.6601 6.97L59.6051 10.11L57.1751 25.435L63.9051 29.44Z" fill="#CECDCC"/>
<path fill-rule="evenodd" clip-rule="evenodd" d="M61.69 46.205L67.23 36.09H62.66L59.605 37.665L61.69 46.205Z" fill="#C18F7C"/>
<path fill-rule="evenodd" clip-rule="evenodd" d="M57.175 25.435L65.365 23.35L67.23 36.09L59.605 37.665L57.175 25.435Z" fill="#FBE3D4"/>
<path fill-rule="evenodd" clip-rule="evenodd" d="M60.3299 27.53L63.2199 26.71L63.5349 33.435L60.3299 27.53Z" fill="#C18F7C"/>
<path fill-rule="evenodd" clip-rule="evenodd" d="M79.1749 0L59.6049 10.11L73.4949 9.84L81.3649 6.285L85.1899 2.46L83.8249 1.505L79.1749 0Z" fill="#C3C3C3"/>
<path fill-rule="evenodd" clip-rule="evenodd" d="M76.495 54.53L84.66 64.28L106.83 62.975L114.215 57.565L114.915 32.6L114.44 21.32L110.885 4.37499L99.95 5.32999L84.095 2.45999L73.495 9.83999L74.255 29.795L76.495 54.53Z" fill="#FBE3D4"/>
<path fill-rule="evenodd" clip-rule="evenodd" d="M96.1451 19.095L98.8551 21.095L99.8701 17.53L98.0451 18.675L96.1451 19.095Z" fill="#F4CAB2"/>
<path fill-rule="evenodd" clip-rule="evenodd" d="M106.745 19.075L104.715 18.835L102.7 17.445L103.75 21.025L106.745 19.075Z" fill="#F4CAB2"/>
<path fill-rule="evenodd" clip-rule="evenodd" d="M102.14 36.08L105.83 34.735L114.915 32.6L114.06 31.945L98.4 32.18L88.705 32.33L88.13 33.02L98.72 34.96L102.14 36.08Z" fill="#F4CAB2"/>
<path fill-rule="evenodd" clip-rule="evenodd" d="M94.895 26.24L99.135 30.9L102.08 25.425L96.825 22.095L87.785 22.14L86 24.82L94.87 26.24H94.895ZM103.27 23.305L105.44 22.05L113.62 22L114.5 22.72L114.615 25.46L107.97 25.71L104.73 30.895L101.915 27.75L103.27 23.305Z" fill="#F4CAB2"/>
<path fill-rule="evenodd" clip-rule="evenodd" d="M84.66 19.855V21.285L90.51 19.77L98.855 21.095L98.045 18.675L89.77 17.79L84.66 19.855Z" fill="#8E8E8E"/>
<path fill-rule="evenodd" clip-rule="evenodd" d="M104.715 18.835L103.75 21.025L110.785 19.915L114.29 20.62L113.91 18.81L110.84 18.155L104.715 18.835Z" fill="#8E8E8E"/>
<path fill-rule="evenodd" clip-rule="evenodd" d="M95.0299 49.24L91.7549 42.885H110.42L107.195 48.795L95.0299 49.24Z" fill="#C18F7C"/>
<path fill-rule="evenodd" clip-rule="evenodd" d="M93.9201 43.885L95.5101 47.845L106.55 47.51L108.205 43.755L93.9201 43.885Z" fill="white"/>
<path fill-rule="evenodd" clip-rule="evenodd" d="M87.6501 21.32L84.6501 24.32L82.6151 26.2L84.7701 27.025L84.9201 30.33L88.2001 33.065L99.1551 32.72L99.7551 30.85L88.7551 31.39L86.6301 29.43L86.4651 24.905L88.1501 23.145L96.5001 23.5L100.33 25.835L99.8951 23.595C99.8951 23.595 96.9551 21.38 96.7801 21.39C96.6051 21.4 87.6501 21.32 87.6501 21.32Z" fill="#6F7273"/>
<path fill-rule="evenodd" clip-rule="evenodd" d="M114.44 21.32L117.035 24.055L117.17 29.795L114.915 32.6L104.96 32.81L103.745 30.86L114.61 30.82L115.57 29.235L115.485 24.775L114.29 23.195L105.83 23.07L101.5 26.535L102.525 23.35L105.38 21.59C105.575 21.605 114.44 21.32 114.44 21.32Z" fill="#6F7273"/>
<path fill-rule="evenodd" clip-rule="evenodd" d="M102.545 23.35L99.8851 23.58L98.7201 34.96L102.41 35.535L105.83 34.735L102.545 23.35Z" fill="#FFF0E8"/>
<path fill-rule="evenodd" clip-rule="evenodd" d="M102.41 37.45L98.7201 34.96L105.83 34.735L102.41 37.45Z" fill="#C18F7C"/>
<path fill-rule="evenodd" clip-rule="evenodd" d="M66.9351 66.89L60.6351 74.445L80.8201 87.715L87.4551 77.04L66.9351 66.89Z" fill="#DCDCDB"/>
<path fill-rule="evenodd" clip-rule="evenodd" d="M99.23 70.045L87.455 77.04L97.84 85.12L103.605 76.755L99.23 70.045Z" fill="#DCDCDB"/>
<path fill-rule="evenodd" clip-rule="evenodd" d="M59.1399 120.76L49.9899 132.205L66.5949 137.165L72.5149 134.15L74.7649 117.59L72.2699 112.39L59.1399 120.76Z" fill="#B2879C"/>
<path fill-rule="evenodd" clip-rule="evenodd" d="M66.94 120.93L59.14 120.76L57.86 124.25L59.435 127.06L67.23 124.105L66.94 120.93Z" fill="#F4CAB2"/>
<path fill-rule="evenodd" clip-rule="evenodd" d="M49.44 127.785L49.27 138.48L58.725 134.345L61.74 131.155L59.14 120.76L51.89 123.64L49.44 127.785Z" fill="#FBE3D4"/>
<path fill-rule="evenodd" clip-rule="evenodd" d="M56.065 142.26L49.27 138.48L61.74 131.155L66.595 137.165L56.065 142.26Z" fill="#C18F7C"/>
<path fill-rule="evenodd" clip-rule="evenodd" d="M44.9849 121.89L49.4399 127.785L59.1399 120.76L55.5849 115.365L44.9849 121.89Z" fill="#DCDCDB"/>
<path fill-rule="evenodd" clip-rule="evenodd" d="M137.635 80.215L141.32 77.97L142.235 81.47L138.79 84.54L137.635 80.215Z" fill="#4F5353"/>
<path fill-rule="evenodd" clip-rule="evenodd" d="M139.955 100.425L131.84 101.72L131.05 114.82L139.565 113.39L142.06 107.78L139.955 100.425Z" fill="#DCDCDB"/>
<path fill-rule="evenodd" clip-rule="evenodd" d="M131.245 111.575L72.27 112.39L72.515 134.15L135.405 133.065L131.245 111.575Z" fill="#D1A0B8"/>
<path fill-rule="evenodd" clip-rule="evenodd" d="M146.735 96.25L139.825 104.285L139.565 113.39L155.775 107.78L150.165 105.6L146.735 96.25Z" fill="#C18F7C"/>
<path fill-rule="evenodd" clip-rule="evenodd" d="M148.305 94.285L147.98 103.105L148.915 106.845L155.775 107.78L152.97 95.315L148.305 94.285Z" fill="#F4CAB2"/>
<path fill-rule="evenodd" clip-rule="evenodd" d="M140.095 96.395L139.8 105.055L146.03 99.76L147.98 103.105L150.79 101.86L148.305 94.285L140.095 96.395Z" fill="#FBE3D4"/>
<path fill-rule="evenodd" clip-rule="evenodd" d="M96.49 35.605L86.96 45.43L91.34 37.475L96.49 35.605Z" fill="#F4CAB2"/>
<path fill-rule="evenodd" clip-rule="evenodd" d="M107.38 35.9L112.78 44.75L110.825 37.39L107.38 35.9Z" fill="#F4CAB2"/>
<path fill-rule="evenodd" clip-rule="evenodd" d="M103.425 168.53L106.035 169.145L107.69 171.765L106.335 171.525L105.75 170.37L103.05 169.67L103.425 168.53Z" fill="#95637C"/>
<path fill-rule="evenodd" clip-rule="evenodd" d="M100.9 165.825C101.09 165.825 101.645 166.825 101.645 166.825L104.265 168.525L103.72 170.235C103.72 170.235 98.7749 168.865 98.4999 168.865C98.2249 168.865 100.9 165.825 100.9 165.825Z" fill="#734D61"/>
<path fill-rule="evenodd" clip-rule="evenodd" d="M99.535 170.205L99.945 170.46L102.095 173.845L97.695 177.12L93.44 173.355L95.85 170.295L99.535 170.205Z" fill="#95637C"/>
<path fill-rule="evenodd" clip-rule="evenodd" d="M100.17 168.925L99.9449 170.46L97.9449 171.8L95.8649 170.3L95.4399 168.53C95.4399 168.53 100.155 168.53 100.08 168.47C100.005 168.41 100.17 168.925 100.17 168.925Z" fill="#734D61"/>
<path fill-rule="evenodd" clip-rule="evenodd" d="M92.2449 168.52L89.6499 169.2L88.0599 171.86L89.4099 171.585L89.9649 170.415L92.6499 169.65L92.2449 168.52Z" fill="#95637C"/>
<path fill-rule="evenodd" clip-rule="evenodd" d="M94.6999 165.75C94.5099 165.75 93.9799 166.79 93.9799 166.79L91.4049 168.555L91.9949 170.255C91.9949 170.255 96.9049 168.755 97.1749 168.755C97.4449 168.755 94.6999 165.75 94.6999 165.75Z" fill="#734D61"/>
<path fill-rule="evenodd" clip-rule="evenodd" d="M93.7599 160.915L92.3399 160.905L91.1849 158.595L92.2999 156.79L89.1099 152.81L84.0649 150.11L86.8549 156.385L87.5099 161.17L93.9799 166.79L94.2649 164.28L93.7599 160.915Z" fill="#734D61"/>
<path fill-rule="evenodd" clip-rule="evenodd" d="M101.76 160.815L103.18 160.77L104.275 158.43L103.115 156.655L106.205 152.595L111.18 149.775L108.55 156.115L108.015 160.915L101.645 166.845L101.34 164.195L101.76 160.815Z" fill="#734D61"/>
<path fill-rule="evenodd" clip-rule="evenodd" d="M99.1551 158.085L100.245 158.75L101.32 160.445L94.8951 161.025L94.3351 159.835L95.0451 158.775L96.3701 157.54L99.1551 158.085Z" fill="#734D61"/>
<path fill-rule="evenodd" clip-rule="evenodd" d="M99.2201 154.905L99.3501 154.335L98.0701 153.725L95.3401 155.1L95.6301 155.53L95.0451 158.775L96.4901 158.255L97.5501 158.675L98.4401 158.315L100.245 158.75L98.4701 156.645L99.2151 155.445L99.2201 154.905Z" fill="#734D61"/>
<path fill-rule="evenodd" clip-rule="evenodd" d="M101.83 159.735L102.32 162.745L101.645 166.845L97.8451 170.4L93.9801 166.79L93.1751 162.845L93.7451 159.67L95.9451 160.28L97.7301 159.23L99.8601 160.285L101.83 159.735Z" fill="#B2879C"/>
<path fill-rule="evenodd" clip-rule="evenodd" d="M100.73 167.7L99.69 168.67L99.615 162.32H100.66L100.73 167.715V167.7ZM98.405 169.875L97.845 170.4L97.345 169.94L97.25 162.35H98.3L98.395 169.89L98.405 169.875ZM96.035 168.71L94.975 167.71L94.91 162.37H95.955L96.035 168.71Z" fill="#EED2C1"/>
<path fill-rule="evenodd" clip-rule="evenodd" d="M101.83 159.735L102.32 162.745L93.1751 162.86V162.845L93.7451 159.67L95.9451 160.28L97.7301 159.23L99.8601 160.285L101.83 159.735Z" fill="#B2879C"/>
<path fill-rule="evenodd" clip-rule="evenodd" d="M99.35 154.335L100.3 154.645L100.29 155.8L98.39 155.5L99.35 154.335Z" fill="#CECDCC"/>
<path fill-rule="evenodd" clip-rule="evenodd" d="M97.59 144.72C97.2933 144.72 97.0033 144.808 96.7566 144.973C96.5099 145.138 96.3177 145.372 96.2041 145.646C96.0906 145.92 96.0609 146.222 96.1188 146.513C96.1767 146.804 96.3195 147.071 96.5293 147.281C96.7391 147.49 97.0064 147.633 97.2973 147.691C97.5883 147.749 97.8899 147.719 98.164 147.606C98.4381 147.492 98.6724 147.3 98.8372 147.053C99.002 146.807 99.09 146.517 99.09 146.22C99.09 145.822 98.9319 145.441 98.6506 145.159C98.3693 144.878 97.9878 144.72 97.59 144.72ZM104.775 148.025C104.569 148.028 104.369 148.092 104.2 148.209C104.03 148.325 103.9 148.49 103.824 148.681C103.748 148.872 103.73 149.081 103.773 149.283C103.816 149.484 103.918 149.667 104.065 149.811C104.213 149.954 104.4 150.051 104.602 150.088C104.804 150.125 105.013 150.101 105.202 150.02C105.391 149.938 105.551 149.803 105.663 149.63C105.775 149.458 105.833 149.256 105.83 149.05C105.825 148.775 105.711 148.512 105.513 148.32C105.316 148.129 105.05 148.022 104.775 148.025ZM90.49 148.205C90.6968 148.197 90.9012 148.251 91.0772 148.36C91.2531 148.469 91.3926 148.628 91.4778 148.816C91.5629 149.005 91.5899 149.215 91.5552 149.419C91.5205 149.623 91.4257 149.812 91.283 149.961C91.1403 150.111 90.9561 150.215 90.7541 150.26C90.552 150.304 90.3412 150.288 90.1487 150.212C89.9561 150.136 89.7906 150.004 89.6733 149.834C89.5559 149.664 89.4921 149.462 89.49 149.255C89.4872 148.984 89.5901 148.723 89.7768 148.527C89.9636 148.331 90.2194 148.215 90.49 148.205ZM93.53 146.28C93.7825 146.276 94.0306 146.347 94.2426 146.484C94.4547 146.622 94.6212 146.819 94.7211 147.051C94.8209 147.283 94.8496 147.539 94.8035 147.788C94.7574 148.036 94.6386 148.265 94.4621 148.446C94.2856 148.626 94.0594 148.751 93.8122 148.803C93.565 148.855 93.308 148.832 93.0737 148.738C92.8394 148.643 92.6384 148.481 92.4962 148.273C92.354 148.064 92.277 147.818 92.275 147.565C92.273 147.398 92.3039 147.233 92.3659 147.078C92.4279 146.923 92.5198 146.782 92.6363 146.663C92.7529 146.543 92.8918 146.448 93.0451 146.382C93.1984 146.317 93.3632 146.282 93.53 146.28ZM101.69 146.175C101.438 146.177 101.191 146.254 100.983 146.396C100.774 146.538 100.612 146.738 100.518 146.973C100.423 147.207 100.4 147.463 100.452 147.71C100.503 147.957 100.627 148.184 100.807 148.36C100.988 148.537 101.216 148.656 101.464 148.703C101.712 148.75 101.969 148.722 102.201 148.623C102.433 148.523 102.63 148.358 102.768 148.146C102.906 147.935 102.978 147.687 102.975 147.435C102.971 147.098 102.834 146.776 102.593 146.54C102.352 146.303 102.027 146.172 101.69 146.175Z" fill="#734D61"/>
<path fill-rule="evenodd" clip-rule="evenodd" d="M110.405 165.05L109.89 168.95L106.865 169.91L107.78 167.01L110.405 165.05Z" fill="#95637C"/>
<path fill-rule="evenodd" clip-rule="evenodd" d="M85.6099 164.385L85.9099 168.31L88.8799 169.43L88.1199 166.49L85.6099 164.385Z" fill="#95637C"/>
<path fill-rule="evenodd" clip-rule="evenodd" d="M108.94 27.645C108.656 27.645 108.379 27.5608 108.143 27.4032C107.907 27.2455 107.723 27.0214 107.614 26.7592C107.506 26.497 107.477 26.2084 107.533 25.9301C107.588 25.6517 107.725 25.396 107.925 25.1953C108.126 24.9946 108.382 24.858 108.66 24.8026C108.938 24.7472 109.227 24.7756 109.489 24.8842C109.751 24.9929 109.975 25.1768 110.133 25.4128C110.291 25.6488 110.375 25.9262 110.375 26.21C110.372 26.5898 110.22 26.9533 109.952 27.2218C109.683 27.4904 109.32 27.6424 108.94 27.645Z" fill="#2B2B2B"/>
<path fill-rule="evenodd" clip-rule="evenodd" d="M93.4999 27.645C93.2163 27.644 92.9394 27.559 92.7041 27.4007C92.4687 27.2425 92.2856 27.018 92.1777 26.7557C92.0699 26.4934 92.0422 26.205 92.0981 25.927C92.154 25.649 92.2911 25.3937 92.492 25.1936C92.6929 24.9934 92.9486 24.8572 93.2268 24.8022C93.505 24.7473 93.7933 24.776 94.0552 24.8847C94.3172 24.9935 94.541 25.1774 94.6984 25.4133C94.8559 25.6492 94.9399 25.9264 94.9399 26.21C94.9386 26.591 94.7863 26.956 94.5164 27.225C94.2465 27.494 93.881 27.645 93.4999 27.645Z" fill="#2B2B2B"/>
<path fill-rule="evenodd" clip-rule="evenodd" d="M103.32 25.775H99.6601L99.8851 23.58L102.545 23.35L103.32 25.775Z" fill="#6F7273"/>
<path fill-rule="evenodd" clip-rule="evenodd" d="M84.6449 24.33L65.3649 23.35L65.6849 25.54L84.7649 27.035L84.6449 24.33Z" fill="#4F5353"/>
<path fill-rule="evenodd" clip-rule="evenodd" d="M103.945 23.9L105.83 31.36L104.72 30.82L102.275 23.35L103.945 23.9Z" fill="#6F7273"/>
<path fill-rule="evenodd" clip-rule="evenodd" d="M98.7201 23.9L100.07 23.565L99.1501 30.86L97.7751 31.525L98.7201 23.9Z" fill="#6F7273"/>
<path fill-rule="evenodd" clip-rule="evenodd" d="M70.02 102.79L62.54 103.045L63 107.685L70.48 107.43L70.02 102.79Z" fill="#8F759F"/>
<path fill-rule="evenodd" clip-rule="evenodd" d="M66.155 102.92L70.02 102.79L70.28 105.44L66.415 105.575L66.155 102.92Z" fill="#594265"/>
<path fill-rule="evenodd" clip-rule="evenodd" d="M66.155 102.92L62.54 103.045L62.605 103.705L66.22 103.585L66.155 102.92Z" fill="#EBEBEA"/>
<path fill-rule="evenodd" clip-rule="evenodd" d="M66.3501 104.91L62.7351 105.03L62.6701 104.37L66.2851 104.245L66.3501 104.91Z" fill="#EBEBEA"/>
<path fill-rule="evenodd" clip-rule="evenodd" d="M70.3501 106.105L62.8701 106.36L62.8051 105.695L70.2801 105.44L70.3501 106.105Z" fill="#EBEBEA"/>
<path fill-rule="evenodd" clip-rule="evenodd" d="M70.48 107.43L63 107.685L62.935 107.02L70.415 106.765L70.48 107.43Z" fill="#EBEBEA"/>
<defs>
<clipPath id="clip0">
<rect width="200" height="200" fill="white" transform="translate(198)"/>
</clipPath>
</defs>
</svg>
