<svg width="303" height="231" viewBox="0 0 303 231" fill="none" xmlns="http://www.w3.org/2000/svg">
<path opacity="0.1" fill-rule="evenodd" clip-rule="evenodd" d="M64.6602 203.752L116.009 194.223L240.329 189.93L302.914 206.106L165.594 222.005L70.0687 217.302L64.6602 203.752Z" fill="black"/>
<path opacity="0.1" fill-rule="evenodd" clip-rule="evenodd" d="M0 189.93L50.7424 200.461L92.2534 185.601L39.7688 179.511L0 189.93Z" fill="black"/>
<path fill-rule="evenodd" clip-rule="evenodd" d="M58.2871 126.05L97.8286 139.289L51.1312 196.096L54.3784 146.606L58.2871 126.05Z" fill="#54B08B"/>
<path fill-rule="evenodd" clip-rule="evenodd" d="M5.14087 139.836L58.2871 126.05L51.1312 196.096L5.14087 139.836Z" fill="#3F8F6F"/>
<path d="M53.6562 96.0882L71.513 95.3462L41.7029 167.695L53.6562 96.0882Z" fill="#369496"/>
<path d="M69.892 99.6959L74.24 98.8822L51.4847 164.845L46.4701 167.695L56.9034 132.631L69.892 99.6959Z" fill="#369496"/>
<path d="M41.7029 167.695L53.6562 96.0882L69.892 99.6959L46.4701 167.695H41.7029Z" fill="#50A9AA"/>
<path fill-rule="evenodd" clip-rule="evenodd" d="M0 93.6011L21.6443 82.778L32.1938 184.173L30.4566 180.089L0 93.6011Z" fill="#369496"/>
<path fill-rule="evenodd" clip-rule="evenodd" d="M33.7087 181.159L30.8403 89.364L0 93.6011L29.2193 184.173L33.7087 181.159Z" fill="#50A9AA"/>
<path fill-rule="evenodd" clip-rule="evenodd" d="M30.8403 89.364L10.009 99.1893L29.2192 184.173H36.2539L32.1937 134.826L31.4311 99.6959L30.8403 89.364Z" fill="#8CE0DC"/>
<path fill-rule="evenodd" clip-rule="evenodd" d="M31.4312 99.6959L19.2102 104.701L36.254 184.173L31.4312 99.6959Z" fill="#50A9AA"/>
<path d="M21.6847 116.24L32.1937 112.233" stroke="#8CE0DC" stroke-width="1.07" stroke-miterlimit="10"/>
<path d="M24.4016 128.921L32.9058 125.503" stroke="#8CE0DC" stroke-width="1.07" stroke-miterlimit="10"/>
<path d="M27.1993 141.955L33.7088 139.637" stroke="#8CE0DC" stroke-width="1.07" stroke-miterlimit="10"/>
<path fill-rule="evenodd" clip-rule="evenodd" d="M49.1263 76.4785L30.1888 80.511L32.4361 162.184L48.4143 106.323L49.1263 76.4785Z" fill="#318FA6"/>
<path fill-rule="evenodd" clip-rule="evenodd" d="M60.2566 85.9712L49.1264 76.4785L36.8751 165.218L60.2566 85.9712Z" fill="#8CE0DC"/>
<path fill-rule="evenodd" clip-rule="evenodd" d="M34.9612 82.2867L51.2424 82.1537L46.9347 106.451L34.9612 82.2867Z" fill="#5EC0D9"/>
<path fill-rule="evenodd" clip-rule="evenodd" d="M43.7229 89.5482L34.9612 82.2867L32.4362 162.184L36.8751 165.218L43.7229 89.5482Z" fill="#8CE0DC"/>
<path fill-rule="evenodd" clip-rule="evenodd" d="M43.7229 89.5482L60.2566 85.9712L40.1071 164.937L36.8751 165.218L43.7229 89.5482Z" fill="#318FA6"/>
<path fill-rule="evenodd" clip-rule="evenodd" d="M58.7517 91.8612L48.4699 94.2357L42.8594 154.144L58.7517 91.8612Z" fill="#27788C"/>
<path d="M47.1821 107.991L55.0753 106.267" stroke="#8CE0DC" stroke-width="1.07" stroke-miterlimit="10"/>
<path d="M46.1066 119.469L52.0858 118.338" stroke="#8CE0DC" stroke-width="1.07" stroke-miterlimit="10"/>
<path d="M45.1016 130.226L49.1769 129.402" stroke="#8CE0DC" stroke-width="1.07" stroke-miterlimit="10"/>
<path d="M44.0814 140.092L46.3893 139.596" stroke="#8CE0DC" stroke-width="1.07" stroke-miterlimit="10"/>
<path d="M78.0175 89.1439L92.814 90.935L56.2217 180.601L78.0175 89.1439Z" fill="#318FA6"/>
<path d="M95.7884 100.796L78.0175 89.1439L52.4948 178.958L55.6308 179.511L95.7884 100.796Z" fill="#5EC0D9"/>
<path d="M49.2577 177.525L66.1954 118.103L70.1091 98.0532L71.71 91.9534L95.7884 100.796L56.2216 180.601L49.2577 177.525Z" fill="#8CE0DC"/>
<path d="M70.1091 98.0532L86.5923 103.913L51.2524 178.406L49.2577 177.525L70.1091 98.0532Z" fill="#5EC0D9"/>
<path d="M80.901 115.908L66.6752 111.138" stroke="#8CE0DC" stroke-width="1.07" stroke-miterlimit="10"/>
<path d="M75.5378 127.212L63.4583 123.41" stroke="#8CE0DC" stroke-width="1.07" stroke-miterlimit="10"/>
<path d="M70.3112 138.229L60.3879 135.103" stroke="#8CE0DC" stroke-width="1.07" stroke-miterlimit="10"/>
<path d="M65.3521 148.971L57.3933 146.52" stroke="#8CE0DC" stroke-width="1.07" stroke-miterlimit="10"/>
<path fill-rule="evenodd" clip-rule="evenodd" d="M5.14087 139.836L55.9994 150.537V171.287L51.1312 196.096L29.7091 188.364L15.15 179.511L5.14087 139.836Z" fill="#54B08B"/>
<path fill-rule="evenodd" clip-rule="evenodd" d="M15.15 179.511L12.1755 191.572L51.1312 196.096L15.15 179.511Z" fill="#72C9A6"/>
<path fill-rule="evenodd" clip-rule="evenodd" d="M55.9994 150.537L97.8286 139.289L79.2698 189.659L51.1312 196.096L55.9994 150.537Z" fill="#3F8F6F"/>
<path opacity="0.1" fill-rule="evenodd" clip-rule="evenodd" d="M161.549 178.733L218.953 171.287L282.174 177.321L210.994 187.136L161.549 178.733Z" fill="black"/>
<path fill-rule="evenodd" clip-rule="evenodd" d="M281.633 33.1706L286.234 33.7181L279.29 133.839L275.139 135.103L276.765 79.856L281.633 33.1706Z" fill="#C4C4C4"/>
<path fill-rule="evenodd" clip-rule="evenodd" d="M282.174 26.3184L286.774 27.9611L286.234 33.7181L281.633 33.1706L280.684 30.0183L282.174 26.3184Z" fill="#1C7678"/>
<path fill-rule="evenodd" clip-rule="evenodd" d="M215.18 8.4436L202.778 185.728L211.868 186.824L220.18 89.8348L224.695 8.99115L215.18 8.4436Z" fill="#50A9AA"/>
<path fill-rule="evenodd" clip-rule="evenodd" d="M224.695 8.99115L229.563 11.1865L217.66 184.628L211.868 186.824L224.695 8.99115Z" fill="#1C7678"/>
<path fill-rule="evenodd" clip-rule="evenodd" d="M160.034 27.4136L221.104 27.7155L281.603 33.5237L275.139 135.103L152.475 126.659L160.034 27.4136Z" fill="#ECECEB"/>
<path fill-rule="evenodd" clip-rule="evenodd" d="M160.034 27.4136L160.297 21.329L282.174 26.3184L281.633 33.1706L160.034 27.4136Z" fill="#369496"/>
<path fill-rule="evenodd" clip-rule="evenodd" d="M230.25 28.1812L229.8 36.4047L206.802 35.2175L207.161 27.1782L230.25 28.1812Z" fill="#72CBCC"/>
<path fill-rule="evenodd" clip-rule="evenodd" d="M169.438 46.0406L172.907 44.9762L178.235 46.3426L183.567 46.5166L182.169 44.6539L183.875 43.6611L189.946 45.1195L188.022 47.1818L189.885 47.279L193.309 45.1861L198.844 47.6987L197.955 49.3823L195.041 48.8501L195.162 47.5605L190.249 49.6279L193.617 52.729L194.778 49.8633L198.632 50.7179L200.788 54.5149L196.576 56.4032L193.258 60.7223L188.89 60.492L188.537 64.2635L191.198 63.3731L194.657 69.2324L189.133 65.159L187.047 65.1027L182.517 58.6395L181.118 57.8105L180.78 53.0258L175.588 49.0189L170.15 50.897L170.251 48.9012L169.2 48.5174L169.438 46.0406Z" fill="#54B08B"/>
<path fill-rule="evenodd" clip-rule="evenodd" d="M193.642 67.8354L195.571 66.6891L201.091 69.4166L201.737 71.4533L206.479 73.8175L203.747 79.1396L198.697 82.7729L195.324 88.1154L196.248 89.9525L193.733 88.9546L194.061 84.6407L195.44 77.5634L193.612 75.6854L192.728 71.09L193.748 68.8128L193.642 67.8354Z" fill="#54B08B"/>
<path fill-rule="evenodd" clip-rule="evenodd" d="M219.766 59.4634L219.347 60.4152L222.25 62.1398L223.523 61.2852L226.533 61.7764L226.588 66.0494L228.452 69.3399L230.719 68.864L229.164 72.139L226.927 74.0785L227.22 77.6709L223.291 83.4739L220.483 84.0829L218.847 77.4457L219.503 76.0743L218.357 70.3275L216.307 69.6776L213.645 70.568L211.206 67.0268L212.504 62.5492L214.675 59.8472L219.766 59.4634Z" fill="#54B08B"/>
<path fill-rule="evenodd" clip-rule="evenodd" d="M214.847 59.5862L216.655 58.7061L217.69 57.2425L219.296 57.222L221.018 59.0438L221.887 58.8186L222.564 60.1543L224.114 59.1001L226.831 60.272L226.159 61.9658L228.507 68.2089L233.462 65.4405L231.755 64.2635L229.952 63.0353L230.679 62.3701L233.042 64.1714L236.81 65.7219L237.966 70.3326L239.168 69.7441L241.233 65.901L242.774 66.1467L245.89 70.9672L247.415 69.4218L246.869 66.469L249.884 66.0341L251.596 63.9053L250.697 60.6097L252.217 60.144L252.859 62.1807L254.651 59.5146L257.575 56.7461L256.53 55.2314L257.833 53.8343L260.691 54.2591L262.464 53.1077L263.933 53.5631L261.166 55.4207L261.721 57.1299L264.231 54.0135L268.387 53.2561L268.443 51.0915L264.474 50.3443L257.893 48.4253L254.035 49.6842L252.864 48.5942L249.45 48.4151L247.758 47.0795L240.436 48.1541L237.416 47.7243L236.168 49.0701L229.078 49.8838L227.366 50.9328L226.992 49.8838L228.619 49.372L228.462 48.3383L223.957 47.5605L218.347 50.7281L219.059 52.4987L221.493 52.9491L221.953 51.245L223.887 49.9912L223.397 52.2377L222.2 53.6911L219.175 53.3687L217.185 54.6173L215.433 55.5026L216.049 56.9406L213.857 57.0429L214.847 59.5862Z" fill="#54B08B"/>
<path fill-rule="evenodd" clip-rule="evenodd" d="M214.979 51.7976L216.812 51.5162L216.478 52.7392L217.206 54.2437L216.433 54.6889L215.11 54.4535L215.696 53.4557L214.979 51.7976Z" fill="#54B08B"/>
<path fill-rule="evenodd" clip-rule="evenodd" d="M213.787 53.1384L214.655 52.8621L215.115 53.3738L214.09 54.5098L213.787 53.1384Z" fill="#54B08B"/>
<path fill-rule="evenodd" clip-rule="evenodd" d="M228.038 78.4692L230.149 76.847L229.184 81.1302L227.947 81.2274L228.038 78.4692Z" fill="#54B08B"/>
<path fill-rule="evenodd" clip-rule="evenodd" d="M203.606 50.6002L204.697 49.198L207.095 48.2411L209.242 48.0313L209.171 46.2914L210.292 46.2965L210.595 44.5822L212.337 42.9395L211.721 42.3664L209.883 42.8628L209.181 40.9335L203.348 41.0615L201.404 42.525L199.172 42.2999L197.324 44.966L200.601 45.6773L201.091 48.63L203.606 50.6002Z" fill="#54B08B"/>
<path fill-rule="evenodd" clip-rule="evenodd" d="M248.546 85.8842L248.49 83.8782L247.465 81.9285L250.273 80.291L250.384 79.16L254.136 77.896L254.924 78.2082L254.591 79.4875L256.05 80.2142L256.111 77.9472L257.095 78.592L258.03 81.1302L258.944 82.1025L259.711 84.7942L257.651 87.5013L256.05 87.4706L254.5 85.3878L251.106 84.8812L250.849 85.787L248.546 85.8842Z" fill="#54B08B"/>
<path fill-rule="evenodd" clip-rule="evenodd" d="M247.01 73.0806L249.611 71.3254L249.813 73.6589L248.571 74.9485L247.768 74.9638L247.01 73.0806Z" fill="#54B08B"/>
<path fill-rule="evenodd" clip-rule="evenodd" d="M254.222 74.2167L257.666 75.7519L258.489 77.4201L257.949 77.5532L257.126 76.9186L256.197 77.3536L254.424 75.4193L253.308 74.2781L254.222 74.2167Z" fill="#54B08B"/>
<path fill-rule="evenodd" clip-rule="evenodd" d="M244.258 70.5015L245.93 72.267L245.622 73.1165L246.369 74.1297L246.243 75.5881L247.273 76.2892L246.086 76.499L244.733 74.8564L244.289 73.0448L243.607 71.7655L244.364 71.5864L244.258 70.5015Z" fill="#54B08B"/>
<path fill-rule="evenodd" clip-rule="evenodd" d="M257.353 58.5269L258.52 59.2024L257.156 59.9803L256.944 61.7969L254.111 63.1069L254.055 61.889L255.899 61.1317L256.222 59.4429L257.353 58.5269Z" fill="#54B08B"/>
<path fill-rule="evenodd" clip-rule="evenodd" d="M209.853 49.5716L210.888 50.4774L212.373 49.5818L212.044 48.9575L210.115 49.0957L209.853 49.5716Z" fill="#54B08B"/>
<path d="M244.199 95.7181L242.159 121.811L246.549 122.164L248.589 96.0705L244.199 95.7181Z" fill="#9075A0"/>
<path d="M237.939 91.0363L235.574 121.282L239.964 121.635L242.329 91.3887L237.939 91.0363Z" fill="#96637C"/>
<path d="M250.146 104.556L248.751 122.349L253.141 122.703L254.536 104.909L250.146 104.556Z" fill="#318FA6"/>
<path d="M239.044 44.3288L234.805 47.7401L238.168 52.0323L242.408 48.621L239.044 44.3288Z" fill="#318FA6"/>
<path d="M202.81 75.6142L198.574 79.0223L201.941 83.3185L206.177 79.9104L202.81 75.6142Z" fill="#318FA6"/>
<path d="M249.338 80.5494L245.102 83.9575L248.468 88.2537L252.704 84.8456L249.338 80.5494Z" fill="#318FA6"/>
<path d="M219.849 66.2926L215.614 69.7007L218.98 73.9969L223.216 70.5888L219.849 66.2926Z" fill="#9075A0"/>
<path d="M251.233 61.911L246.998 65.3191L250.364 69.6153L254.6 66.2072L251.233 61.911Z" fill="#9075A0"/>
<path d="M196.303 56.9445L192.068 60.3525L195.434 64.6487L199.67 61.2407L196.303 56.9445Z" fill="#96637C"/>
<path d="M181.153 52.5566L176.918 55.9647L180.284 60.2608L184.52 56.8528L181.153 52.5566Z" fill="#96637C"/>
<path d="M227.68 54.2024L223.444 57.6105L226.811 61.9067L231.046 58.4986L227.68 54.2024Z" fill="#96637C"/>
<path d="M204.495 90.5103L233.411 93.4016" stroke="#8F8F8F" stroke-width="1.07" stroke-miterlimit="10"/>
<path d="M204.222 93.2992L223.957 95.2745" stroke="#8F8F8F" stroke-width="1.07" stroke-miterlimit="10"/>
<path d="M203.949 96.0882L228.275 98.524" stroke="#8F8F8F" stroke-width="1.07" stroke-miterlimit="10"/>
<path d="M203.677 98.8822L219.741 100.489" stroke="#8F8F8F" stroke-width="1.07" stroke-miterlimit="10"/>
<path d="M203.404 101.671L215.337 102.869" stroke="#8F8F8F" stroke-width="1.07" stroke-miterlimit="10"/>
<path d="M203.131 104.465L222.872 106.441" stroke="#8F8F8F" stroke-width="1.07" stroke-miterlimit="10"/>
<path d="M202.863 107.254L213.418 108.308" stroke="#8F8F8F" stroke-width="1.07" stroke-miterlimit="10"/>
<path d="M167.367 69.5957L184.835 71.0235" stroke="#8F8F8F" stroke-width="1.07" stroke-miterlimit="10"/>
<path d="M167.14 72.3898L178.633 73.3263" stroke="#8F8F8F" stroke-width="1.07" stroke-miterlimit="10"/>
<path d="M166.917 75.1839L172.897 75.67" stroke="#8F8F8F" stroke-width="1.07" stroke-miterlimit="10"/>
<path d="M166.695 77.9779L179.108 78.9963" stroke="#8F8F8F" stroke-width="1.07" stroke-miterlimit="10"/>
<path d="M166.473 80.772L175.21 81.4884" stroke="#8F8F8F" stroke-width="1.07" stroke-miterlimit="10"/>
<path d="M166.251 83.5712L180.967 84.7738" stroke="#8F8F8F" stroke-width="1.07" stroke-miterlimit="10"/>
<path d="M166.029 86.3652L172.008 86.8514" stroke="#8F8F8F" stroke-width="1.07" stroke-miterlimit="10"/>
<path d="M165.806 89.1593L174.083 89.8348" stroke="#8F8F8F" stroke-width="1.07" stroke-miterlimit="10"/>
<path d="M165.584 91.9534L176.159 92.8182" stroke="#8F8F8F" stroke-width="1.07" stroke-miterlimit="10"/>
<path d="M165.362 94.7525L169.958 95.1261" stroke="#8F8F8F" stroke-width="1.07" stroke-miterlimit="10"/>
<path d="M165.14 97.5466L177.553 98.5598" stroke="#8F8F8F" stroke-width="1.07" stroke-miterlimit="10"/>
<path d="M164.918 100.341L172.271 100.945" stroke="#8F8F8F" stroke-width="1.07" stroke-miterlimit="10"/>
<path fill-rule="evenodd" clip-rule="evenodd" d="M140.324 168.376L142.39 197.463L152.025 200.461L153.808 168.555L140.324 168.376Z" fill="#734D60"/>
<path fill-rule="evenodd" clip-rule="evenodd" d="M192.354 176.43L190.915 213.782L179.371 209.652L183.285 176.43H192.354Z" fill="#734D60"/>
<path fill-rule="evenodd" clip-rule="evenodd" d="M152.025 200.461L160.474 199.653L163.721 172.761L152.025 168.923V200.461Z" fill="#543042"/>
<path fill-rule="evenodd" clip-rule="evenodd" d="M190.915 177.858V213.782L203.717 212.687L198.945 177.224L194.854 176.43L190.915 177.858Z" fill="#96637C"/>
<path fill-rule="evenodd" clip-rule="evenodd" d="M279.29 206.699L271.715 204.852L264.494 172.024L275.321 168.376L279.29 206.699Z" fill="#734D60"/>
<path fill-rule="evenodd" clip-rule="evenodd" d="M293.354 169.737L288.668 205.558L279.29 206.699L273.776 171.287L283.568 166.697L293.354 169.737Z" fill="#96637C"/>
<path fill-rule="evenodd" clip-rule="evenodd" d="M228.058 172.173V195.324L217.741 196.096L216.342 171.287L228.058 172.173Z" fill="#543042"/>
<path fill-rule="evenodd" clip-rule="evenodd" d="M217.741 196.096L210.03 193.358L211.656 173.6L217.741 172.045V196.096Z" fill="#734D60"/>
<path fill-rule="evenodd" clip-rule="evenodd" d="M140.324 155.531L190.915 171.287L295.162 153.413L246.465 146.606L140.324 155.531Z" fill="#D1A1B8"/>
<path fill-rule="evenodd" clip-rule="evenodd" d="M190.915 168.555L189.289 173.068L190.915 177.858L293.354 169.737L295.162 153.413L190.915 168.555Z" fill="#96637C"/>
<path fill-rule="evenodd" clip-rule="evenodd" d="M140.324 155.531V168.376L190.915 177.858V168.555L140.324 155.531Z" fill="#734D60"/>
<path opacity="0.1" fill-rule="evenodd" clip-rule="evenodd" d="M161.004 153.791L185.86 156.585L165.595 162.035L140.324 155.531L161.004 153.791Z" fill="black"/>
<path fill-rule="evenodd" clip-rule="evenodd" d="M280.553 143.28L228.609 144.964L230.23 155.987L280.553 151.371V143.28Z" fill="#27788C"/>
<path fill-rule="evenodd" clip-rule="evenodd" d="M230.23 146.606L222.337 143.219L211.833 141.269V149.518L230.23 155.987V146.606Z" fill="#CECECD"/>
<path fill-rule="evenodd" clip-rule="evenodd" d="M280.553 143.28L260.262 137.994L211.833 141.269L230.23 146.606L280.553 143.28Z" fill="#73CFE5"/>
<path d="M230.23 144.575L229.422 140.307L230.23 136.351L275.139 135.103V141.873L230.23 144.575Z" fill="#1C7678"/>
<path fill-rule="evenodd" clip-rule="evenodd" d="M230.23 136.351L211.833 133.179V139.759L230.23 144.575V136.351Z" fill="#CECECD"/>
<path fill-rule="evenodd" clip-rule="evenodd" d="M211.833 133.179L252.687 131.26L275.139 135.103L230.23 137.446L211.833 133.179Z" fill="#72CBCC"/>
<path fill-rule="evenodd" clip-rule="evenodd" d="M204.798 124.72L255.121 126.05V133.731L205.98 134.008L204.798 124.72Z" fill="#27788C"/>
<path fill-rule="evenodd" clip-rule="evenodd" d="M205.884 124.72L200.47 122.529V129.909L205.98 134.008L205.884 124.72Z" fill="#CECECD"/>
<path fill-rule="evenodd" clip-rule="evenodd" d="M200.47 122.529L247.273 122.043L255.121 126.05L205.884 125.815L200.47 122.529Z" fill="#73CFE5"/>
<path d="M211.833 117.008L260.53 115.908L259.449 124.418H211.833V117.008Z" fill="#1C7678"/>
<path fill-rule="evenodd" clip-rule="evenodd" d="M259.449 115.908L264.494 112.52V119.3L259.449 124.418V115.908Z" fill="#CECECD"/>
<path fill-rule="evenodd" clip-rule="evenodd" d="M264.494 112.52H219.413L211.833 117.008H259.449L264.494 112.52Z" fill="#72CBCC"/>
<path fill-rule="evenodd" clip-rule="evenodd" d="M113.357 208.557L107.535 205.313L107.54 194.592L113.645 194.223L113.357 208.557Z" fill="#734D60"/>
<path d="M88.0922 189.659H79.8102V209.652H88.0922V189.659Z" fill="#543042"/>
<path d="M125.013 188.558H113.357V208.552H125.013V188.558Z" fill="#543042"/>
<path fill-rule="evenodd" clip-rule="evenodd" d="M128.416 217.85L120.2 213.505L122.361 199.136L129.82 196.644L128.416 217.85Z" fill="#734D60"/>
<path fill-rule="evenodd" clip-rule="evenodd" d="M62.2261 107.413L113.585 106.313L122.912 179.511H78.3558L62.2261 107.413Z" fill="#96637C"/>
<path fill-rule="evenodd" clip-rule="evenodd" d="M78.3557 179.511L90.5313 189.659H134.532L122.912 179.511H78.3557Z" fill="#D1A1B8"/>
<path fill-rule="evenodd" clip-rule="evenodd" d="M62.2261 107.413L51.1312 103.211L106.646 98.698L113.585 106.313L62.2261 107.413Z" fill="#D1A1B8"/>
<path fill-rule="evenodd" clip-rule="evenodd" d="M62.2261 107.413L78.3558 179.511L93.2381 189.659L95.0915 203.752L93.2381 217.85L87.5468 214.053V195.513L79.8102 190.61V209.652L71.9625 204.458L74.3865 180.519L51.1312 103.211L62.2261 107.413Z" fill="#734D60"/>
<path fill-rule="evenodd" clip-rule="evenodd" d="M93.2382 189.659V217.85H103.697L101.53 198.977L128.765 199.187L128.416 217.85H136.032L136.158 189.659H93.2382Z" fill="#96637C"/>
<path fill-rule="evenodd" clip-rule="evenodd" d="M106.646 189.659H125.568L126.629 175.402L106.646 189.659Z" fill="#2B2B2B"/>
<path fill-rule="evenodd" clip-rule="evenodd" d="M170.741 150.537L174.735 143.28L169.902 146.125L170.741 150.537Z" fill="#8B6651"/>
<path fill-rule="evenodd" clip-rule="evenodd" d="M140.324 155.531L142.935 145.557L147.046 138.547L163.721 143.111L160.297 156.585L140.324 155.531Z" fill="#72CBCC"/>
<path fill-rule="evenodd" clip-rule="evenodd" d="M129.82 119.408L147.046 138.547L140.324 155.531L133.098 148.976L130.845 135.103L129.82 119.408Z" fill="#50A9AA"/>
<path fill-rule="evenodd" clip-rule="evenodd" d="M151.5 53.0207L136.158 51.1324L126.629 51.9768L120.321 47.0897L110.1 43.6355L110.893 49.8377L114.549 53.5734L109.777 59.2587L108.272 66.1364L108.06 75.0662L110.403 83.0646L108.368 82.6552L106.181 83.694L106.207 79.6462L104.782 76.4376L100.359 76.4171L96.6924 78.1059L97.3943 84.1545L99.6214 90.0958L98.6417 93.509L99.7274 98.698L100.697 101.2L99.7779 103.211L104.944 109.567L113.867 117.213L117.66 115.247L120.195 112.162L122.362 105.622L142.986 108.001L147.288 84.1699L149.637 80.0811L150.546 71.8218L149.47 69.0175L151.5 53.0207Z" fill="#DFBDA5"/>
<path fill-rule="evenodd" clip-rule="evenodd" d="M118.367 47.8061L117.766 64.765L116.009 80.0914L113.877 104.45L122.361 105.622L120.584 108.508L120.195 112.162L113.867 117.213L99.7779 103.211L99.6213 90.0958L106.212 89.5584L106.181 83.694L108.065 82.5784L110.403 83.0646L108.873 77.8551L108.272 66.1364L110.423 59.9035L114.549 53.5734L111.736 49.3055L110.1 43.6355L115.554 45.7848L118.367 47.8061Z" fill="#C3987B"/>
<path fill-rule="evenodd" clip-rule="evenodd" d="M99.6215 90.0958L106.212 89.5584L99.7275 98.698L98.7175 93.3913L99.6215 90.0958Z" fill="#8B6651"/>
<path fill-rule="evenodd" clip-rule="evenodd" d="M122.362 105.622L110.378 103.964L113.867 117.213L117.988 115.263L120.195 112.162L122.362 105.622Z" fill="#8B6651"/>
<path fill-rule="evenodd" clip-rule="evenodd" d="M119.902 76.9903L122.589 70.7881L129.189 71.3817L129.941 78.94L116.009 80.0914L129.133 83.085L130.845 86.1554L133.406 66.9194L120.968 68.9561L118.473 72.5382L119.902 76.9903Z" fill="#8B6651"/>
<path fill-rule="evenodd" clip-rule="evenodd" d="M141.117 79.3443L143.132 73.7971L149.248 73.8943L150.536 75.2453L147.879 82.4044L136.699 82.7678L136.406 84.9631L147.288 84.1699L151.035 78.6278L151.394 70.7574L140.309 70.1945L138.41 78.6841L141.117 79.3443Z" fill="#8B6651"/>
<path fill-rule="evenodd" clip-rule="evenodd" d="M130.846 86.1554L133.063 89.2821L136.143 86.9435L130.846 86.1554Z" fill="#8B6651"/>
<path fill-rule="evenodd" clip-rule="evenodd" d="M132.987 70.6857L138.219 71.2896L136.143 86.9435L130.846 86.1554L132.987 70.6857Z" fill="#E8CAB6"/>
<path fill-rule="evenodd" clip-rule="evenodd" d="M132.987 70.6857L132.457 68.5927L133.406 66.9194L138.683 67.5846L139.577 69.6469L138.219 71.2896L132.987 70.6857Z" fill="#27788C"/>
<path fill-rule="evenodd" clip-rule="evenodd" d="M133.406 66.9194L117.751 64.765L116.488 70.394L116.61 74.7591L115.994 80.1067L131.421 81.9183L132.972 70.7011L133.391 66.9347L133.406 66.9194ZM120.968 68.9663L129.351 70.1331L128.341 78.0342L119.912 77.0108L120.968 68.9663Z" fill="#318FA6"/>
<path fill-rule="evenodd" clip-rule="evenodd" d="M138.683 67.5846L153.949 69.6316L151.929 84.8045L136.719 82.7882L138.234 71.3049L138.698 67.6051L138.683 67.5846ZM142.112 71.9292L141.102 79.3443L148.334 80.3984L149.379 72.8555L142.112 71.9292Z" fill="#318FA6"/>
<path d="M123.066 93.694L122.913 94.9021L138.211 96.8852L138.364 95.6771L123.066 93.694Z" fill="#8B6651"/>
<path fill-rule="evenodd" clip-rule="evenodd" d="M103.939 84.9273L102.874 79.856L99.3942 80.1681L103.939 84.9273Z" fill="#8B6651"/>
<path fill-rule="evenodd" clip-rule="evenodd" d="M151.5 53.0207L125.371 40.4525L125.225 47.1153L126.629 51.9768L151.5 53.0207Z" fill="#DDDDDC"/>
<path fill-rule="evenodd" clip-rule="evenodd" d="M110.1 43.6355L103.262 44.4645L97.9044 55.7994L105.277 56.1218L114.549 53.5734L110.1 43.6355Z" fill="#C4C4C4"/>
<path fill-rule="evenodd" clip-rule="evenodd" d="M97.9043 55.7994L88.5114 75.0815L99.2375 71.177L108.272 66.1364L114.549 53.5734L97.9043 55.7994Z" fill="#DDDDDC"/>
<path fill-rule="evenodd" clip-rule="evenodd" d="M108.272 66.1364L110.403 83.0646L106.181 83.694L104.727 76.453L96.6923 78.1059L99.6213 90.0958L99.7274 98.698L88.5114 75.0815L108.272 66.1364Z" fill="#A3A3A3"/>
<path fill-rule="evenodd" clip-rule="evenodd" d="M126.629 51.9768L125.371 40.4525L110.1 43.6355L126.629 51.9768Z" fill="#C4C4C4"/>
<path fill-rule="evenodd" clip-rule="evenodd" d="M117.766 64.765L93.2382 77.0926L97.6216 81.908L96.6924 78.1059L104.798 76.5041L116.625 74.7438L117.766 64.765Z" fill="#27788C"/>
<path fill-rule="evenodd" clip-rule="evenodd" d="M109.494 75.8184L116.625 74.7438L116.312 77.456L109.721 77.6402L109.494 75.8184Z" fill="#8B6651"/>
<path fill-rule="evenodd" clip-rule="evenodd" d="M104.737 76.5195L109.494 75.8184L109.721 77.6402L104.99 77.7579L104.737 76.5195Z" fill="#737373"/>
<path fill-rule="evenodd" clip-rule="evenodd" d="M99.7779 103.212L96.4651 110.616L109.166 122.514L114.746 125.984L120.453 122.038L124.488 116.143L120.195 112.162L114.882 117.008L99.7779 103.212Z" fill="#DDDDDC"/>
<path fill-rule="evenodd" clip-rule="evenodd" d="M124.488 116.143L130.598 119.879L122.856 129.131L114.605 136.029L100.808 125.016L89.6022 113.62L96.4651 110.616L114.746 125.984L124.488 116.143Z" fill="#C4C4C4"/>
<path fill-rule="evenodd" clip-rule="evenodd" d="M129.82 119.408L114.605 136.029L89.6022 113.62L89.7133 156.585L124.099 154.436L133.098 148.976L129.82 119.408Z" fill="#1C7678"/>
<path fill-rule="evenodd" clip-rule="evenodd" d="M114.883 117.008L109.858 121.869L114.746 125.984L119.599 121.148L114.883 117.008Z" fill="#474747"/>
<path fill-rule="evenodd" clip-rule="evenodd" d="M114.746 125.984L109.292 131.27L114.605 136.029L120.165 130.42L114.746 125.984Z" fill="#737373"/>
<path fill-rule="evenodd" clip-rule="evenodd" d="M133.098 148.976L112.696 153.546L91.3545 169.737L135.81 172.521L133.098 148.976Z" fill="#369496"/>
<path fill-rule="evenodd" clip-rule="evenodd" d="M138.436 101.446L140.143 98.1505L171.776 107.413L190.733 95.0647L194.854 96.8865L172.321 114.598L138.436 101.446Z" fill="#CECECD"/>
<path fill-rule="evenodd" clip-rule="evenodd" d="M134.239 100.464L173.059 109.516L163.721 150.537L124.725 141.556L134.239 100.464Z" fill="#3AA0BA"/>
<path fill-rule="evenodd" clip-rule="evenodd" d="M173.058 109.516L198.945 94.5171L189.648 133.455L163.721 150.537L173.058 109.516Z" fill="#27788C"/>
<path fill-rule="evenodd" clip-rule="evenodd" d="M160.974 150.537L162.216 141.878L170.816 136.93L170.892 146.233L166.241 151.693L160.974 150.537Z" fill="#DFBDA5"/>
<path fill-rule="evenodd" clip-rule="evenodd" d="M160.974 150.537L160.297 156.585L170.741 150.537L170.892 146.233L160.974 150.537Z" fill="#C3987B"/>
<path fill-rule="evenodd" clip-rule="evenodd" d="M119.599 173.206L133.406 171.287L143.9 180.882L144.299 206.106L139.329 208.849L132.461 209.652L119.599 173.206Z" fill="#474747"/>
<path fill-rule="evenodd" clip-rule="evenodd" d="M144.299 206.106L152.323 217.85H132.785L132.462 209.652L144.299 206.106Z" fill="#27788C"/>
<path fill-rule="evenodd" clip-rule="evenodd" d="M122.912 159.226L124.099 169.737L122.912 182.602L106.646 189.659H93.2382L89.1931 169.737L122.912 159.226Z" fill="#4F5253"/>
<path fill-rule="evenodd" clip-rule="evenodd" d="M122.912 159.226L148.889 177.858L147.046 182.32L143.9 186.916L122.912 182.602V159.226Z" fill="#737373"/>
<path fill-rule="evenodd" clip-rule="evenodd" d="M143.9 186.916L152.833 191.572L163.721 173.068L148.889 177.858L143.9 186.916Z" fill="#318FA6"/>
<path fill-rule="evenodd" clip-rule="evenodd" d="M89.1932 169.737L110.716 163.125L88.0923 156.585L89.1932 169.737Z" fill="#1C7678"/>
<path fill-rule="evenodd" clip-rule="evenodd" d="M89.6022 113.62L93.2382 144.575L88.5114 149.907L79.8102 155.577L78.3558 118.855L89.6022 113.62Z" fill="#72CBCC"/>
<path fill-rule="evenodd" clip-rule="evenodd" d="M93.2381 144.575L110.378 151.089L109.721 155.802L107.136 162.25L79.8102 155.577L93.2381 144.575Z" fill="#369496"/>
<path fill-rule="evenodd" clip-rule="evenodd" d="M110.378 151.089L113.731 152.328L113.761 157.962L110.716 163.125L107.136 162.25L110.378 151.089Z" fill="#DDDDDC"/>
<path fill-rule="evenodd" clip-rule="evenodd" d="M113.731 152.328L123.367 147.86L124.725 155.577L122.912 159.226L110.716 163.125L113.731 152.328Z" fill="#DFBDA5"/>
<path fill-rule="evenodd" clip-rule="evenodd" d="M123.366 147.86L122.912 159.226L128.351 163.125L128.765 157.726L123.366 147.86Z" fill="#8B6651"/>
<path d="M125.523 77.1387C126.329 77.1387 126.982 76.4765 126.982 75.6598C126.982 74.843 126.329 74.1809 125.523 74.1809C124.717 74.1809 124.063 74.843 124.063 75.6598C124.063 76.4765 124.717 77.1387 125.523 77.1387Z" fill="black"/>
<path d="M145.253 79.6871C146.059 79.6871 146.713 79.025 146.713 78.2082C146.713 77.3914 146.059 76.7293 145.253 76.7293C144.447 76.7293 143.794 77.3914 143.794 78.2082C143.794 79.025 144.447 79.6871 145.253 79.6871Z" fill="black"/>
</svg>
